<?xml version="1.0" encoding="utf-8"?>
<!-- Generator: Adobe Illustrator 21.0.0, SVG Export Plug-In . SVG Version: 6.00 Build 0)  -->
<svg version="1.1" id="Layer_1" xmlns="http://www.w3.org/2000/svg" xmlns:xlink="http://www.w3.org/1999/xlink" x="0px" y="0px"
	 viewBox="0 0 34 34" style="enable-background:new 0 0 34 34;" xml:space="preserve">
<style type="text/css">
	.st0{fill:#FFFFFF;}
</style>
<g>
	<path class="st0" d="M32.3,29.7l-4.2-4.2c0.9-1.5,1.5-3.2,1.5-5.1c0-5.3-4.3-9.5-9.5-9.5c-4.5,0-8.3,3.2-9.3,7.4l-2.6-2.6H1.7v14.1
		h9.2v-1.3H3V16.9h4.6l2.9,2.9c0,0.2,0,0.3,0,0.5c0,5.2,4.3,9.5,9.5,9.5c1.9,0,3.7-0.6,5.2-1.5l4.2,4.2L32.3,29.7z M12.5,20.3
		c0,0,0-0.1,0-0.1h5.6c0.2,0.6,0.8,1,1.5,1c0.9,0,1.6-0.7,1.6-1.6c0-0.9-0.7-1.6-1.6-1.6c-0.6,0-1.2,0.4-1.4,0.9h-5.5
		c0.7-3.5,3.7-6.1,7.4-6.1c4.2,0,7.6,3.4,7.6,7.6s-3.4,7.6-7.6,7.6S12.5,24.5,12.5,20.3z"/>
	<path class="st0" d="M10.5,12.1c0.9,0,1.6-0.7,1.6-1.6c0-0.9-0.7-1.6-1.6-1.6C9.8,8.9,9.3,9.3,9,9.8H3v-7h25.6v9h1.3V1.5H1.7v9.7H9
		C9.3,11.7,9.8,12.1,10.5,12.1z"/>
</g>
</svg>
