<?xml version="1.0" encoding="utf-8"?>
<!-- Generator: Adobe Illustrator 21.0.0, SVG Export Plug-In . SVG Version: 6.00 Build 0)  -->
<svg version="1.1" id="Layer_1" xmlns="http://www.w3.org/2000/svg" xmlns:xlink="http://www.w3.org/1999/xlink" x="0px" y="0px"
	 viewBox="0 0 34 34" style="enable-background:new 0 0 34 34;" xml:space="preserve">
<style type="text/css">
	.st0{fill:#FFFFFF;}
</style>
<g>
	<path class="st0" d="M18.8,14.3v-3c0.6-0.3,0.9-0.8,0.9-1.5c0-0.9-0.7-1.6-1.6-1.6S16.5,9,16.5,9.9c0,0.6,0.4,1.2,0.9,1.5v4.3h13.2
		v15h-0.7c-1.4-2.3-3.9-3.8-6.8-3.8s-5.4,1.5-6.8,3.8h-0.7v-7.9l-3.8-3.8v-3c0.6-0.3,0.9-0.8,0.9-1.5c0-0.9-0.7-1.6-1.6-1.6
		s-1.6,0.7-1.6,1.6c0,0.6,0.4,1.2,0.9,1.5v3.6l3.8,3.8V32H32V14.3H18.8z"/>
	<circle class="st0" cx="23.2" cy="22.7" r="3"/>
	<polygon class="st0" points="3.3,3.3 28.9,3.3 28.9,9.8 30.2,9.8 30.2,2 2,2 2,30.2 9.5,30.2 9.5,28.9 3.3,28.9 	"/>
</g>
</svg>
