<?xml version="1.0" encoding="utf-8"?>
<!-- Generator: Adobe Illustrator 21.0.0, SVG Export Plug-In . SVG Version: 6.00 Build 0)  -->
<svg version="1.1" id="Layer_1" xmlns="http://www.w3.org/2000/svg" xmlns:xlink="http://www.w3.org/1999/xlink" x="0px" y="0px"
	 viewBox="0 0 34 34" style="enable-background:new 0 0 34 34;" xml:space="preserve">
<style type="text/css">
	.st0{fill:#FFFFFF;}
</style>
<g>
	<polygon class="st0" points="3,3 22.6,3 22.6,7.5 24,7.5 24,1.7 1.7,1.7 1.7,24 7.6,24 7.6,22.6 3,22.6 	"/>
	<path class="st0" d="M10,10v22.3h22.3V10H10z M31,31H11.4V11.4H31V31z"/>
	<path class="st0" d="M15,21.3l0.6,0.6l1.1-1.1l1.1,1.1l0.6-0.6l-1-1l1.3-0.7l-0.4-0.7L17,19.5v-1.3h-0.8v1.3l-1.1-0.6l-0.4,0.7
		l1.3,0.7L15,21.3z M16.6,20.2L16.6,20.2L16.6,20.2L16.6,20.2L16.6,20.2z"/>
	<path class="st0" d="M19.5,21.3l0.6,0.6l1.1-1.1l1.1,1.1l0.6-0.6l-1-1l1.3-0.7l-0.4-0.7l-1.1,0.6v-1.3h-0.8v1.3l-1.1-0.6l-0.4,0.7
		l1.3,0.7L19.5,21.3z M21.2,20.2L21.2,20.2L21.2,20.2L21.2,20.2L21.2,20.2z"/>
	<path class="st0" d="M24.1,21.3l0.6,0.6l1.1-1.1l1.1,1.1l0.6-0.6l-1-1l1.3-0.7l-0.4-0.7l-1.1,0.6v-1.3h-0.8v1.3l-1.1-0.6l-0.4,0.7
		l1.3,0.7L24.1,21.3z M25.8,20.2L25.8,20.2L25.8,20.2L25.8,20.2L25.8,20.2z"/>
</g>
</svg>
