<?xml version="1.0" encoding="utf-8"?>
<!-- Generator: Adobe Illustrator 21.0.0, SVG Export Plug-In . SVG Version: 6.00 Build 0)  -->
<svg version="1.1" id="Layer_1" xmlns="http://www.w3.org/2000/svg" xmlns:xlink="http://www.w3.org/1999/xlink" x="0px" y="0px"
	 viewBox="0 0 34 34" style="enable-background:new 0 0 34 34;" xml:space="preserve">
<style type="text/css">
	.st0{fill:#FFFFFF;}
</style>
<g>
	<path class="st0" d="M17,1.3C8.3,1.3,1.3,8.3,1.3,17c0,8.7,7,15.7,15.7,15.7c8.7,0,15.7-7,15.7-15.7C32.7,8.3,25.7,1.3,17,1.3z
		 M17,31.4C9.1,31.4,2.6,24.9,2.6,17S9.1,2.6,17,2.6c7.9,0,14.4,6.5,14.4,14.4S24.9,31.4,17,31.4z"/>
	<path class="st0" d="M20.9,8.9h-12v12h4.3v4.3h12v-12h-4.3V8.9z M23.8,14.4v9.4h-9.4v-3v-6.4h6.4H23.8z"/>
</g>
</svg>
