<?xml version="1.0" encoding="utf-8"?>
<!-- Generator: Adobe Illustrator 21.0.0, SVG Export Plug-In . SVG Version: 6.00 Build 0)  -->
<svg version="1.1" id="Layer_1" xmlns="http://www.w3.org/2000/svg" xmlns:xlink="http://www.w3.org/1999/xlink" x="0px" y="0px"
	 viewBox="0 0 34 34" style="enable-background:new 0 0 34 34;" xml:space="preserve">
<style type="text/css">
	.st0{fill:#FFFFFF;}
</style>
<g>
	<polygon class="st0" points="26.1,22.8 26.1,24.8 29.5,24.8 29.5,30.6 4.5,30.6 4.5,24.8 7.9,24.8 7.9,22.8 2.6,22.8 2.6,32.6 
		31.4,32.6 31.4,22.8 	"/>
	<polygon class="st0" points="7.9,18.2 4.2,18.2 4.2,2.7 29.8,2.7 29.8,18.2 26.1,18.2 26.1,19.6 31.1,19.6 31.1,1.4 2.9,1.4 
		2.9,19.6 7.9,19.6 	"/>
	<polygon class="st0" points="13.5,20.9 11.2,20.9 17,26.7 22.8,20.9 20.5,20.9 20.5,18 13.5,18 	"/>
	<rect x="13.5" y="13.9" class="st0" width="7" height="2"/>
	<rect x="13.5" y="9.9" class="st0" width="7" height="2"/>
</g>
</svg>
