<?xml version="1.0" encoding="utf-8"?>
<!-- Generator: Adobe Illustrator 21.0.0, SVG Export Plug-In . SVG Version: 6.00 Build 0)  -->
<svg version="1.1" id="Layer_1" xmlns="http://www.w3.org/2000/svg" xmlns:xlink="http://www.w3.org/1999/xlink" x="0px" y="0px"
	 viewBox="0 0 34 34" style="enable-background:new 0 0 34 34;" xml:space="preserve">
<style type="text/css">
	.st0{fill:#FFFFFF;}
</style>
<g>
	<g>
		<path class="st0" d="M14.1,11.5h-2.6v2.6v2.6v2.6h2.6h2.6h2.6v-2.6v-2.6v-2.6h-2.6H14.1z M17.5,13.4v0.8v2.6v0.8h-0.8h-2.6h-0.8
			v-0.8v-2.6v-0.8h0.8h2.6H17.5z"/>
		<path class="st0" d="M29.9,11.5h-2.6h-2.6v2.6v2.6v2.6h2.6h2.6h2.6v-2.6v-2.6v-2.6H29.9z M30.7,16.8v0.8h-0.8h-2.6h-0.8v-0.8v-2.6
			v-0.8h0.8h2.6h0.8v0.8V16.8z"/>
		<path class="st0" d="M14.1,24.6h-2.6v2.6v2.6v2.6h2.6h2.6h2.6v-2.6v-2.6v-2.6h-2.6H14.1z M17.5,26.5v0.8v2.6v0.8h-0.8h-2.6h-0.8
			v-0.8v-2.6v-0.8h0.8h2.6H17.5z"/>
		<polygon class="st0" points="24.6,27.3 22,27.3 22,29.9 24.6,29.9 27.3,29.9 27.3,27.3 27.3,24.6 24.6,24.6 		"/>
		<rect x="27.3" y="22" class="st0" width="2.6" height="2.6"/>
		<rect x="22" y="19.4" class="st0" width="2.6" height="2.6"/>
		<rect x="29.9" y="24.6" class="st0" width="2.6" height="2.6"/>
		<rect x="27.3" y="29.9" class="st0" width="2.6" height="2.6"/>
		<polygon class="st0" points="2.8,2.8 28.4,2.8 28.4,8.7 29.7,8.7 29.7,1.5 1.5,1.5 1.5,29.7 8.9,29.7 8.9,28.4 2.8,28.4 		"/>
	</g>
</g>
</svg>
