<?xml version="1.0" encoding="utf-8"?>
<!-- Generator: Adobe Illustrator 21.0.0, SVG Export Plug-In . SVG Version: 6.00 Build 0)  -->
<svg version="1.1" id="Layer_1" xmlns="http://www.w3.org/2000/svg" xmlns:xlink="http://www.w3.org/1999/xlink" x="0px" y="0px"
	 viewBox="0 0 34 34" style="enable-background:new 0 0 34 34;" xml:space="preserve">
<style type="text/css">
	.st0{fill:#FFFFFF;}
</style>
<g>
	<polygon class="st0" points="16.3,9.1 22.1,14.9 31.5,5.5 29.2,3.2 22.1,10.3 18.6,6.8 	"/>
	<path class="st0" d="M29.4,29.8H3.8v-9.2h4.6l3.3,3.3h5.5c0.2,0.6,0.8,1,1.5,1c0.9,0,1.6-0.7,1.6-1.6s-0.7-1.6-1.6-1.6
		c-0.6,0-1.2,0.4-1.4,0.9h-5l-3.3-3.3H2.5v11.8h28.2V15.6h-1.3V29.8z"/>
	<path class="st0" d="M11.2,15.8c0.9,0,1.6-0.7,1.6-1.6s-0.7-1.6-1.6-1.6c-0.6,0-1.2,0.4-1.5,0.9h-6V4.2h16.8V2.9H2.5v12h7.3
		C10,15.4,10.6,15.8,11.2,15.8z"/>
</g>
</svg>
