<?xml version="1.0" encoding="utf-8"?>
<!-- Generator: Adobe Illustrator 21.0.0, SVG Export Plug-In . SVG Version: 6.00 Build 0)  -->
<svg version="1.1" id="Layer_1" xmlns="http://www.w3.org/2000/svg" xmlns:xlink="http://www.w3.org/1999/xlink" x="0px" y="0px"
	 viewBox="0 0 34 34" style="enable-background:new 0 0 34 34;" xml:space="preserve">
<style type="text/css">
	.st0{fill:#FFFFFF;}
</style>
<g>
	<polygon class="st0" points="3.1,3.3 28.1,3.3 28.1,9.8 29.4,9.8 29.4,2 1.8,2 1.8,30.2 9.8,30.2 9.8,28.9 3.1,28.9 	"/>
	<rect x="18.3" y="18.9" class="st0" width="8.3" height="2"/>
	<rect x="18.3" y="24.6" class="st0" width="8.3" height="2"/>
	<polygon class="st0" points="19.9,12.4 19.9,13.7 30.9,13.7 30.9,30.7 13.9,30.7 13.9,19.8 12.6,19.8 12.6,32 32.2,32 32.2,12.4 	
		"/>
	<polygon class="st0" points="14.2,16.2 14.2,13.8 16.6,13.8 16.6,11.8 14.2,11.8 14.2,9.4 12.2,9.4 12.2,11.8 9.8,11.8 9.8,13.8 
		12.2,13.8 12.2,16.2 	"/>
</g>
</svg>
