<?xml version="1.0" encoding="utf-8"?>
<!-- Generator: Adobe Illustrator 21.0.0, SVG Export Plug-In . SVG Version: 6.00 Build 0)  -->
<svg version="1.1" id="Layer_1" xmlns="http://www.w3.org/2000/svg" xmlns:xlink="http://www.w3.org/1999/xlink" x="0px" y="0px"
	 viewBox="0 0 34 34" style="enable-background:new 0 0 34 34;" xml:space="preserve">
<style type="text/css">
	.st0{fill:#FFFFFF;}
</style>
<g>
	<polygon class="st0" points="14.2,24.2 19.8,18.5 14.2,12.9 11.9,15.2 15.2,18.5 11.9,21.8 	"/>
	<polygon class="st0" points="19.8,21.8 22.1,24.2 27.7,18.5 22.1,12.9 19.8,15.2 23.1,18.5 	"/>
	<polygon class="st0" points="9.8,18.4 3.1,18.4 3.1,3.3 18.1,3.3 18.1,10.9 19.4,10.9 19.4,2 1.8,2 1.8,19.7 9.8,19.7 	"/>
	<polygon class="st0" points="22.8,3.8 22.8,5.1 30.9,5.1 30.9,30.7 5.9,30.7 5.9,23.4 4.6,23.4 4.6,32 32.2,32 32.2,3.8 	"/>
</g>
</svg>
