<?xml version="1.0" encoding="utf-8"?>
<!-- Generator: Adobe Illustrator 21.0.0, SVG Export Plug-In . SVG Version: 6.00 Build 0)  -->
<svg version="1.1" id="Layer_1" xmlns="http://www.w3.org/2000/svg" xmlns:xlink="http://www.w3.org/1999/xlink" x="0px" y="0px"
	 viewBox="0 0 34 34" style="enable-background:new 0 0 34 34;" xml:space="preserve">
<style type="text/css">
	.st0{fill:#FFFFFF;}
</style>
<g>
	<path class="st0" d="M17,1.3C8.3,1.3,1.3,8.3,1.3,17c0,8.7,7,15.7,15.7,15.7c8.7,0,15.7-7,15.7-15.7C32.7,8.3,25.7,1.3,17,1.3z
		 M9.1,29c1.3-3.2,4.4-5.4,7.9-5.4s6.6,2.1,7.9,5.4c-2.3,1.5-5,2.4-7.9,2.4S11.4,30.5,9.1,29z M26.5,27.8c-1.7-3.7-5.4-6.1-9.5-6.1
		s-7.8,2.4-9.5,6.1c-3-2.6-4.9-6.5-4.9-10.8C2.6,9.1,9.1,2.6,17,2.6S31.4,9.1,31.4,17C31.4,21.3,29.5,25.2,26.5,27.8z"/>
	<path class="st0" d="M17,9.6c-2.8,0-5,2.3-5,5s2.3,5,5,5s5-2.3,5-5S19.8,9.6,17,9.6z M17,17.7c-1.7,0-3.1-1.4-3.1-3.1
		s1.4-3.1,3.1-3.1s3.1,1.4,3.1,3.1S18.7,17.7,17,17.7z"/>
</g>
</svg>
