<?xml version="1.0" encoding="utf-8"?>
<!-- Generator: Adobe Illustrator 21.0.0, SVG Export Plug-In . SVG Version: 6.00 Build 0)  -->
<svg version="1.1" id="Layer_1" xmlns="http://www.w3.org/2000/svg" xmlns:xlink="http://www.w3.org/1999/xlink" x="0px" y="0px"
	 viewBox="0 0 40 40" style="enable-background:new 0 0 40 40;" xml:space="preserve">
<style type="text/css">
	.st0{opacity:0.1;}
	.st1{fill:#29367B;}
</style>
<g>
	<g class="st0">
		<g>
			<path class="st1" d="M26.4,35.2H7.5c-1.7,0-3-1.3-3-3V13.2c0-1.7,1.3-3,3-3h18.9c1.7,0,3,1.3,3,3v18.9
				C29.4,33.8,28,35.2,26.4,35.2z"/>
		</g>
	</g>
	<g>
		<g>
			<path class="st1" d="M25.1,3.1V1.7H10.2C7,1.7,4.5,4.3,4.5,7.4v4.8h1.4V7.4c0-2.4,1.9-4.3,4.3-4.3H25.1z"/>
			<rect x="4.5" y="15.2" class="st1" width="1.4" height="2.2"/>
			<rect x="17.8" y="36.9" class="st1" width="2.4" height="1.4"/>
			<path class="st1" d="M34.1,32.6c0,2.4-1.9,4.3-4.3,4.3h-6.9v1.4h6.9c3.1,0,5.7-2.6,5.7-5.7v-5.4h-1.4V32.6z"/>
			<rect x="34.1" y="15.2" class="st1" width="1.4" height="8.8"/>
			<rect x="12.6" y="14.4" class="st1" width="9.9" height="1.4"/>
			<path class="st1" d="M23.2,5.4H12c-2,0-3.6,1.6-3.6,3.6v14.5h1.1V8.9c0-1.3,1.1-2.4,2.4-2.4h10.4c-0.5,0.9-0.8,2-0.8,3.1
				c0,0.2,0,0.4,0,0.5h-9.1v1.4h9.4c0.8,2.7,3.4,4.7,6.4,4.7c0.9,0,1.8-0.2,2.6-0.5v4.8c0,1.3-1.1,2.4-2.4,2.4h-4.9v-3.2h-1.4V24
				l2.5,2.5v3.7c-0.2,0.2-0.4,0.5-0.4,0.8c0,0.6,0.5,1.1,1.1,1.1s1.1-0.5,1.1-1.1c0-0.3-0.2-0.6-0.4-0.8v-4.3L24.2,24h4v6.3
				c-0.2,0.2-0.4,0.5-0.4,0.8c0,0.6,0.5,1.1,1.1,1.1c0.6,0,1.1-0.5,1.1-1.1c0-0.3-0.2-0.6-0.4-0.8v-6.5c1.4-0.5,2.4-1.8,2.4-3.3
				v-5.4c1.7-1.2,2.9-3.2,2.9-5.5c0-3.7-3-6.7-6.7-6.7C26.2,2.9,24.4,3.9,23.2,5.4z M28.3,4.3c1.3,0,2.4,0.5,3.3,1.2l-3.8,3.8
				L26.4,8l-1.6,1.6l3,3L33,7.3c0.3,0.7,0.5,1.5,0.5,2.3c0,2.9-2.4,5.2-5.2,5.2s-5.2-2.4-5.2-5.2S25.4,4.3,28.3,4.3z"/>
			<path class="st1" d="M20.6,25c-0.2,0-0.5,0-0.7,0.1c-0.3-0.7-1-1.2-1.8-1.2c-0.3,0-0.5,0.1-0.7,0.1c-0.3-0.6-1-1.1-1.7-1.1
				c-0.2,0-0.4,0-0.5,0.1v-3.4c0-1.1-0.9-1.9-1.9-1.9s-1.9,0.9-1.9,1.9v7L10.7,26c-0.7-0.7-2-0.7-2.8,0c-0.8,0.8-0.8,2,0,2.8
				l5.4,5.4h8l1-2.3c0.2-0.5,0.3-0.9,0.3-1.4v-3.5C22.6,25.8,21.7,25,20.6,25z M11.3,30.1l-2.3-2.3c-0.2-0.2-0.2-0.5,0-0.7
				c0.2-0.2,0.5-0.2,0.7,0l1.6,1.6V30.1z M21.2,30.4c0,0.3-0.1,0.6-0.2,0.9l-0.6,1.5h-6.4l-1.2-1.2V19.7c0-0.3,0.2-0.5,0.5-0.5
				c0.3,0,0.5,0.2,0.5,0.5v5.2v2.2h1.4v-2.2c0-0.3,0.2-0.5,0.5-0.5s0.5,0.2,0.5,0.5v0.9v1.3h1.4v-1.3c0-0.3,0.2-0.5,0.5-0.5
				c0.3,0,0.5,0.2,0.5,0.5v1.1v0.2h1.4v-0.2c0-0.3,0.2-0.5,0.5-0.5c0.3,0,0.5,0.2,0.5,0.5V30.4z"/>
		</g>
	</g>
</g>
</svg>
