<?xml version="1.0" encoding="utf-8"?>
<!-- Generator: Adobe Illustrator 21.0.0, SVG Export Plug-In . SVG Version: 6.00 Build 0)  -->
<svg version="1.1" id="Layer_1" xmlns="http://www.w3.org/2000/svg" xmlns:xlink="http://www.w3.org/1999/xlink" x="0px" y="0px"
	 viewBox="0 0 40 40" style="enable-background:new 0 0 40 40;" xml:space="preserve">
<style type="text/css">
	.st0{opacity:0.1;}
	.st1{fill:#29367B;}
</style>
<g>
	<g class="st0">
		<g>
			<path class="st1" d="M26.4,35.2H7.5c-1.7,0-3-1.3-3-3V13.2c0-1.7,1.3-3,3-3h18.9c1.7,0,3,1.3,3,3v18.9
				C29.4,33.8,28,35.2,26.4,35.2z"/>
		</g>
	</g>
	<g>
		<g>
			<circle class="st1" cx="11.1" cy="30.7" r="1.8"/>
			<path class="st1" d="M5.9,7.4c0-2.4,1.9-4.3,4.3-4.3h4.1V1.7h-4.1C7,1.7,4.5,4.3,4.5,7.4v5.4h1.4V7.4z"/>
			<rect x="4.5" y="15.8" class="st1" width="1.4" height="2.2"/>
			<path class="st1" d="M34.1,32.6c0,2.4-1.9,4.3-4.3,4.3h-8.7v1.4h8.7c3.1,0,5.7-2.6,5.7-5.7v-4.1h-1.4V32.6z"/>
			<rect x="34.1" y="23.4" class="st1" width="1.4" height="1.8"/>
			<path class="st1" d="M16.2,1.8V6H12c-2,0-3.6,1.6-3.6,3.6v16c-2.3,1-4,3.4-4,6.1c0,3.7,3,6.7,6.7,6.7c2.5,0,4.6-1.4,5.8-3.4V35
				h9.5V21.1h5v10.2c0,1.3-1.1,2.4-2.4,2.4h-1.5v1.1h1.5c2,0,3.6-1.6,3.6-3.6V21.1h3.1V1.7L16.2,1.8z M14.7,35.4c-0.7-1.2-2-2-3.6-2
				H11c-1.5,0-2.8,0.8-3.6,2c-1-1-1.6-2.3-1.6-3.8c0-2.9,2.4-5.2,5.2-5.2s5.2,2.4,5.2,5.2C16.4,33.1,15.7,34.4,14.7,35.4z M11.1,25
				c-0.5,0-1,0.1-1.5,0.2V9.5c0-1.3,1.1-2.4,2.4-2.4h4.2v5h-4.7v1.4h4.7v2.4h-4.7v1.4h4.7v3.7h5.6v9.2h-4.2C17,27.2,14.3,25,11.1,25
				z M34.1,19.7h-7.8v-2.2l3.6-3.6V9.6c0.2-0.2,0.4-0.5,0.4-0.8c0-0.6-0.5-1.1-1.1-1.1s-1.1,0.5-1.1,1.1c0,0.3,0.2,0.6,0.4,0.8v3.7
				l-3.6,3.6v16.7h-7.5c0.2-0.6,0.3-1.3,0.3-1.9h5.5V13.2c0.2-0.2,0.4-0.5,0.4-0.8c0-0.6-0.5-1.1-1.1-1.1s-1.1,0.5-1.1,1.1
				c0,0.3,0.2,0.6,0.4,0.8v6.4h-4.2V3.2l16.5,0V19.7z"/>
		</g>
	</g>
</g>
</svg>
