<?xml version="1.0" encoding="utf-8"?>
<!-- Generator: Adobe Illustrator 21.0.0, SVG Export Plug-In . SVG Version: 6.00 Build 0)  -->
<svg version="1.1" id="Layer_1" xmlns="http://www.w3.org/2000/svg" xmlns:xlink="http://www.w3.org/1999/xlink" x="0px" y="0px"
	 viewBox="0 0 40 40" style="enable-background:new 0 0 40 40;" xml:space="preserve">
<style type="text/css">
	.st0{opacity:0.1;fill:#29367B;}
	.st1{fill:#29367B;}
</style>
<g>
	<circle class="st0" cx="16.7" cy="20" r="10.4"/>
	<g>
		<g>
			<g>
				<path class="st1" d="M20,31.3c6.2,0,11.3-5.1,11.3-11.3S26.2,8.7,20,8.7C13.8,8.7,8.7,13.8,8.7,20S13.8,31.3,20,31.3z M20,10.1
					c5.5,0,9.9,4.4,9.9,9.9s-4.4,9.9-9.9,9.9c-5.5,0-9.9-4.4-9.9-9.9S14.5,10.1,20,10.1z"/>
				<path class="st1" d="M20,32.6C20,32.6,20,32.6,20,32.6c-3.8,0-7.3-1.6-9.7-4.5l-0.9,0.7c2.6,3.1,6.4,4.9,10.5,4.9c0,0,0,0,0,0
					c0.9,0,1.9-0.1,2.8-0.3l-0.2-1.1C21.7,32.5,20.9,32.6,20,32.6z"/>
				<path class="st1" d="M24.6,31.7l0.4,1.1c0.6-0.3,1.2-0.5,1.8-0.9l-0.6-1C25.8,31.2,25.2,31.5,24.6,31.7z"/>
				<path class="st1" d="M31.6,12.8l-1,0.6c1.2,2,1.9,4.3,1.9,6.6c0,4-1.8,7.6-5,10l0.7,0.9c3.4-2.6,5.4-6.6,5.4-10.9
					C33.7,17.4,33,14.9,31.6,12.8z"/>
				<path class="st1" d="M20,7.4c0.9,0,1.7,0.1,2.5,0.2c2.5,0.5,4.8,1.8,6.6,3.7l0.8-0.8c-2-2-4.4-3.4-7.2-4
					c-0.9-0.2-1.8-0.3-2.8-0.3C12.4,6.3,6.3,12.5,6.3,20c0,1.8,0.4,3.6,1.1,5.3l1-0.4c-0.7-1.5-1-3.2-1-4.9C7.4,13.1,13,7.5,20,7.4z
					"/>
				<path class="st1" d="M17.3,25.6h8.2v-8.2h-2.9v-2.9h-8.2v8.2h2.9V25.6z M24.1,18.8v5.3h-5.3v-5.3H24.1z M15.9,21.2v-5.3h5.3v1.4
					h-3.8v3.8H15.9z"/>
			</g>
		</g>
	</g>
</g>
</svg>
