<?xml version="1.0" encoding="utf-8"?>
<!-- Generator: Adobe Illustrator 21.0.0, SVG Export Plug-In . SVG Version: 6.00 Build 0)  -->
<svg version="1.1" id="Layer_1" xmlns="http://www.w3.org/2000/svg" xmlns:xlink="http://www.w3.org/1999/xlink" x="0px" y="0px"
	 viewBox="0 0 40 40" style="enable-background:new 0 0 40 40;" xml:space="preserve">
<style type="text/css">
	.st0{opacity:0.1;}
	.st1{fill:#28387C;}
</style>
<g class="st0">
	<g>
		<path class="st1" d="M26.4,35.2H7.5c-1.7,0-3-1.3-3-3V13.2c0-1.7,1.3-3,3-3h18.9c1.7,0,3,1.3,3,3v18.9
			C29.4,33.8,28,35.2,26.4,35.2z"/>
	</g>
</g>
<g>
	<g>
		<rect x="16.1" y="16.1" class="st1" width="8.3" height="1.4"/>
		<path class="st1" d="M5.9,7.4c0-2.4,1.9-4.3,4.3-4.3h12.9V1.7H10.2C7,1.7,4.5,4.3,4.5,7.4v5.8h1.4V7.4z"/>
		<rect x="4.5" y="16.2" class="st1" width="1.4" height="2.2"/>
		<path class="st1" d="M34.1,32.6c0,2.4-1.9,4.3-4.3,4.3h-11v1.4h11c3.1,0,5.7-2.6,5.7-5.7v-2.4h-1.4V32.6z"/>
		<rect x="34.1" y="25.3" class="st1" width="1.4" height="1.8"/>
		<path class="st1" d="M12,6.5h10.5c-0.2,0.6-0.3,1.2-0.3,1.9c0,1.4,0.5,2.8,1.3,3.9h-7.4v1.4h8.3v-0.4c1.2,1.1,2.7,1.7,4.5,1.7
			c0.7,0,1.4-0.1,2.1-0.3v15.7c0,1.3-1.1,2.4-2.4,2.4H24V34h4.5c2,0,3.6-1.6,3.6-3.6V14.2c2.1-1.1,3.5-3.3,3.5-5.8
			c0-3.7-3-6.7-6.7-6.7c-2.6,0-4.8,1.5-5.9,3.6H12c-2,0-3.6,1.6-3.6,3.6v14.3h1.1V8.9C9.6,7.6,10.7,6.5,12,6.5z M28.9,3.1
			c2.9,0,5.2,2.4,5.2,5.2c0,2.9-2.4,5.2-5.2,5.2c-2.9,0-5.2-2.4-5.2-5.2C23.6,5.5,26,3.1,28.9,3.1z"/>
		<path class="st1" d="M27.3,11.9h5.1V6.8h-2v-2h-5.1v5.1h2V11.9z M31.3,8v2.8h-2.8V8H31.3z M26.5,8.8V6h2.8v0.8h-2v2H26.5z"/>
		<path class="st1" d="M29.2,21H11.4v9.4h17.7V21z M27.7,29H12.8v-6.6h14.9V29z"/>
		<polygon class="st1" points="14.3,27 14.8,26.7 14.8,27.3 16,27.3 16,26.7 16.6,27 17.1,26 16.6,25.7 17.1,25.4 16.6,24.4 
			16,24.7 16,24.1 14.8,24.1 14.8,24.7 14.3,24.4 13.7,25.4 14.3,25.7 13.7,26 		"/>
		<polygon class="st1" points="19.1,27 19.7,26.7 19.7,27.3 20.9,27.3 20.9,26.7 21.4,27 22,26 21.4,25.7 22,25.4 21.4,24.4 
			20.9,24.7 20.9,24.1 19.7,24.1 19.7,24.7 19.1,24.4 18.6,25.4 19.1,25.7 18.6,26 		"/>
		<polygon class="st1" points="24,27 24.6,26.7 24.6,27.3 25.7,27.3 25.7,26.7 26.3,27 26.9,26 26.3,25.7 26.9,25.4 26.3,24.4 
			25.7,24.7 25.7,24.1 24.6,24.1 24.6,24.7 24,24.4 23.5,25.4 24,25.7 23.5,26 		"/>
		<rect x="8.4" y="24.4" class="st1" width="1.2" height="1.2"/>
		<rect x="10" y="24.4" class="st1" width="1.2" height="1.2"/>
		<rect x="6.8" y="24.4" class="st1" width="1.2" height="1.2"/>
		<rect x="5.2" y="24.4" class="st1" width="1.2" height="1.2"/>
		<rect x="5.2" y="26" class="st1" width="1.2" height="1.2"/>
		<rect x="5.2" y="27.6" class="st1" width="1.2" height="1.2"/>
		<rect x="5.2" y="29.2" class="st1" width="1.2" height="1.2"/>
		<rect x="5.2" y="30.8" class="st1" width="1.2" height="1.2"/>
		<rect x="5.2" y="32.5" class="st1" width="1.2" height="1.2"/>
		<rect x="6.8" y="32.5" class="st1" width="1.2" height="1.2"/>
		<rect x="8.4" y="32.5" class="st1" width="1.2" height="1.2"/>
		<rect x="10" y="32.5" class="st1" width="1.2" height="1.2"/>
		<rect x="11.7" y="32.5" class="st1" width="1.2" height="1.2"/>
		<rect x="13.3" y="32.5" class="st1" width="1.2" height="1.2"/>
		<rect x="14.9" y="32.5" class="st1" width="1.2" height="1.2"/>
		<rect x="16.5" y="32.5" class="st1" width="1.2" height="1.2"/>
		<rect x="18.2" y="32.5" class="st1" width="1.2" height="1.2"/>
		<rect x="19.8" y="32.5" class="st1" width="1.2" height="1.2"/>
		<rect x="21.4" y="32.5" class="st1" width="1.2" height="1.2"/>
		<rect x="21.4" y="30.8" class="st1" width="1.2" height="1.2"/>
	</g>
</g>
</svg>
