<?xml version="1.0" encoding="utf-8"?>
<!-- Generator: Adobe Illustrator 21.0.0, SVG Export Plug-In . SVG Version: 6.00 Build 0)  -->
<svg version="1.1" id="Layer_1" xmlns="http://www.w3.org/2000/svg" xmlns:xlink="http://www.w3.org/1999/xlink" x="0px" y="0px"
	 viewBox="0 0 40 40" style="enable-background:new 0 0 40 40;" xml:space="preserve">
<style type="text/css">
	.st0{opacity:0.1;fill:#29367B;}
	.st1{fill:#29367B;}
</style>
<g>
	<circle class="st0" cx="16.7" cy="20" r="10.4"/>
	<g>
		<g>
			<path class="st1" d="M20,31.3c6.2,0,11.3-5.1,11.3-11.3S26.2,8.7,20,8.7S8.7,13.8,8.7,20S13.8,31.3,20,31.3z M20,10.1
				c5.5,0,9.9,4.4,9.9,9.9s-4.4,9.9-9.9,9.9s-9.9-4.4-9.9-9.9S14.5,10.1,20,10.1z"/>
			<path class="st1" d="M20,32.6C20,32.6,20,32.6,20,32.6c-3.8,0-7.3-1.6-9.7-4.5l-0.9,0.7c2.6,3.1,6.4,4.9,10.5,4.9c0,0,0,0,0,0
				c0.9,0,1.9-0.1,2.8-0.3l-0.2-1.1C21.7,32.5,20.9,32.6,20,32.6z"/>
			<path class="st1" d="M24.6,31.7l0.4,1.1c0.6-0.3,1.2-0.5,1.8-0.9l-0.6-1C25.8,31.2,25.2,31.5,24.6,31.7z"/>
			<path class="st1" d="M31.6,12.8l-1,0.6c1.2,2,1.9,4.3,1.9,6.6c0,4-1.8,7.6-5,10l0.7,0.9c3.4-2.6,5.4-6.6,5.4-10.9
				C33.7,17.4,33,14.9,31.6,12.8z"/>
			<path class="st1" d="M20,7.4c0.9,0,1.7,0.1,2.5,0.2c2.5,0.5,4.8,1.8,6.6,3.7l0.8-0.8c-2-2-4.4-3.4-7.2-4
				c-0.9-0.2-1.8-0.3-2.8-0.3C12.4,6.3,6.3,12.5,6.3,20c0,1.8,0.4,3.6,1.1,5.3l1-0.4c-0.7-1.5-1-3.2-1-4.9C7.4,13.1,13,7.5,20,7.4z"
				/>
			<rect x="16" y="13.8" class="st1" width="8" height="1.7"/>
			<rect x="16" y="16.4" class="st1" width="8" height="1.7"/>
			<path class="st1" d="M20,28.4L20,28.4l7.1-7.1c0.1-0.1,0-0.3-0.1-0.3h-3V19h-8v2.1h0H13c-0.1,0-0.2,0.2-0.1,0.3L20,28.4L20,28.4z
				 M17.5,23.8l-1.1-1.1h0.7h0.5v-2.1h0h4.9v2.1h0.5h0.7l-1.1,1.1L20,26.2L17.5,23.8L17.5,23.8z"/>
		</g>
	</g>
</g>
</svg>
