<?xml version="1.0" encoding="utf-8"?>
<!-- Generator: Adobe Illustrator 21.0.0, SVG Export Plug-In . SVG Version: 6.00 Build 0)  -->
<svg version="1.1" id="Layer_1" xmlns="http://www.w3.org/2000/svg" xmlns:xlink="http://www.w3.org/1999/xlink" x="0px" y="0px"
	 viewBox="0 0 40 40" style="enable-background:new 0 0 40 40;" xml:space="preserve">
<style type="text/css">
	.st0{opacity:0.1;}
	.st1{fill:#29367B;}
</style>
<g>
	<g class="st0">
		<g>
			<path class="st1" d="M26.1,35.2H7.2c-1.7,0-3-1.3-3-3V13.2c0-1.7,1.3-3,3-3h18.9c1.7,0,3,1.3,3,3v18.9
				C29.1,33.8,27.8,35.2,26.1,35.2z"/>
		</g>
	</g>
	<g>
		<g>
			<path class="st1" d="M34,34.6c0,1.3-1,2.3-2.3,2.3H9.5v-6.7H8.1v8.1h23.6c2,0,3.7-1.7,3.7-3.7v-4.4H34V34.6z"/>
			<path class="st1" d="M25,6.6V5.4H11.8C9.8,5.4,8.2,7,8.2,9v15.4h1.1V9c0-1.3,1.1-2.4,2.4-2.4H25z"/>
			<rect x="4.2" y="21.6" class="st1" width="1.4" height="2.2"/>
			<path class="st1" d="M27.1,3.2v5H13.3c-1.3,0-2.3,1-2.3,2.3v17.5h3.8c0,0.1,0,0.3,0,0.4c0,3.7,3,6.7,6.7,6.7c3.7,0,6.7-3,6.7-6.7
				c0-0.1,0-0.3,0-0.4h3.8V13.8h-1.1v13h-2.8c-0.5-2.2-2.1-4-4.2-4.7v-1.1h-4.5v1.1c-2.1,0.8-3.7,2.5-4.2,4.7h-2.8V10.5
				c0-0.6,0.5-1.2,1.2-1.2h13.8v5.6c-0.2,0.2-0.4,0.5-0.4,0.8c0,0.6,0.5,1.1,1.1,1.1s1.1-0.5,1.1-1.1c0-0.3-0.2-0.6-0.4-0.8V1.8H9.9
				c-3.1,0-5.7,2.6-5.7,5.7v11.2h1.4V7.5c0-2.4,1.9-4.3,4.3-4.3H27.1z M21.4,23.1c2.9,0,5.2,2.4,5.2,5.2s-2.4,5.2-5.2,5.2
				s-5.2-2.4-5.2-5.2S18.5,23.1,21.4,23.1z"/>
			<path class="st1" d="M35.4,19.9v-6.4l-3-3V1.7H31v9.4l3,3v5.8c-0.2,0.2-0.4,0.5-0.4,0.8c0,0.6,0.5,1.1,1.1,1.1s1.1-0.5,1.1-1.1
				C35.8,20.4,35.6,20.1,35.4,19.9z"/>
			<polygon class="st1" points="25.1,28.5 23.7,28.5 23.7,25.8 19.2,25.8 19.2,28.5 17.8,28.5 21.4,32.1 			"/>
			<rect x="19.2" y="15.3" class="st1" width="4.5" height="1.4"/>
			<rect x="19.2" y="18.1" class="st1" width="4.5" height="1.4"/>
			<rect x="33.9" y="24.9" class="st1" width="1.4" height="1.8"/>
		</g>
	</g>
</g>
</svg>
