<?xml version="1.0" encoding="utf-8"?>
<!-- Generator: Adobe Illustrator 21.0.0, SVG Export Plug-In . SVG Version: 6.00 Build 0)  -->
<svg version="1.1" id="Layer_1" xmlns="http://www.w3.org/2000/svg" xmlns:xlink="http://www.w3.org/1999/xlink" x="0px" y="0px"
	 viewBox="0 0 40 40" style="enable-background:new 0 0 40 40;" xml:space="preserve">
<style type="text/css">
	.st0{opacity:0.1;}
	.st1{fill:#29367B;}
</style>
<g>
	<g class="st0">
		<g>
			<path class="st1" d="M25.8,35.2H6.9c-1.7,0-3-1.3-3-3V13.2c0-1.7,1.3-3,3-3h18.9c1.7,0,3,1.3,3,3v18.9
				C28.8,33.8,27.5,35.2,25.8,35.2z"/>
		</g>
	</g>
	<g>
		<g>
			<path class="st1" d="M5.3,7.4c0-2.4,1.9-4.3,4.3-4.3h14.9V1.7H9.6c-3.1,0-5.7,2.6-5.7,5.7v11.8h1.4V7.4z"/>
			<rect x="3.9" y="22.2" class="st1" width="1.4" height="2.2"/>
			<polygon class="st1" points="9.3,31.2 9.3,32.8 10.9,32.8 14.2,29.5 12.6,27.9 			"/>
			<polygon class="st1" points="11.8,33.8 8.3,33.8 8.3,30.4 9.9,30.4 9.9,29.2 7.2,29.2 7.2,34.9 12.9,34.9 12.9,32.4 11.8,32.4 
							"/>
			<path class="st1" d="M33.6,32.6c0,2.4-1.9,4.3-4.3,4.3h-11v1.4h11c3.1,0,5.7-2.6,5.7-5.7v-2.4h-1.4V32.6z"/>
			<rect x="33.6" y="25.3" class="st1" width="1.4" height="1.8"/>
			<path class="st1" d="M25,31.7c0.5,0,1-0.2,1.4-0.5c1.1-0.8,1.7-2.1,1.7-3.5v-2.4h-6.2v2.4c0,1.4,0.6,2.6,1.7,3.5
				C24,31.6,24.5,31.7,25,31.7z M25,26.4h2v1.3c0,1-0.5,2-1.3,2.6c-0.2,0.2-0.5,0.2-0.7,0.2V26.4z"/>
			<path class="st1" d="M35,21.8c-0.3,0-0.6,0.2-0.8,0.4H14.9v1.4h15.5v6.8c0,1.3-1.1,2.4-2.4,2.4H17.1c0.1-0.4,0.1-0.8,0.1-1.3
				c0-3.7-3-6.7-6.7-6.7C10,25,9.5,25,9,25.1V8.9c0-1.3,1.1-2.4,2.4-2.4h18.9v8.9h-2.6l-3,3h-9.9v1.4h10.4l3-3h5.8
				c0.2,0.2,0.5,0.4,0.8,0.4c0.6,0,1.1-0.5,1.1-1.1c0-0.6-0.5-1.1-1.1-1.1c-0.3,0-0.6,0.2-0.8,0.4h-2.6v-10H11.5
				c-2,0-3.6,1.6-3.6,3.6v16.6c-2.3,1-4,3.4-4,6.1c0,3.7,3,6.7,6.7,6.7c2.8,0,5.2-1.8,6.2-4.2H28c2,0,3.6-1.6,3.6-3.6v-6.8h2.6
				c0.2,0.2,0.5,0.4,0.8,0.4c0.6,0,1.1-0.5,1.1-1.1S35.6,21.8,35,21.8z M10.5,36.9c-2.9,0-5.2-2.4-5.2-5.2s2.4-5.2,5.2-5.2
				s5.2,2.4,5.2,5.2S13.4,36.9,10.5,36.9z"/>
			<path class="st1" d="M19.6,8.1H11v8.6h8.6V8.1z M18.2,13.1l-1-1l-2.7,2.7l-1.1-1.1l-1,1v-5h5.8V13.1z"/>
			<circle class="st1" cx="14.1" cy="11.1" r="0.9"/>
		</g>
	</g>
</g>
</svg>
