<?xml version="1.0" encoding="utf-8"?>
<!-- Generator: Adobe Illustrator 21.0.0, SVG Export Plug-In . SVG Version: 6.00 Build 0)  -->
<svg version="1.1" id="Layer_1" xmlns="http://www.w3.org/2000/svg" xmlns:xlink="http://www.w3.org/1999/xlink" x="0px" y="0px"
	 viewBox="0 0 40 40" style="enable-background:new 0 0 40 40;" xml:space="preserve">
<style type="text/css">
	.st0{opacity:0.1;}
	.st1{fill:#29367B;}
</style>
<g>
	<g class="st0">
		<g>
			<path class="st1" d="M25.4,35.2H6.5c-1.7,0-3-1.3-3-3V13.2c0-1.7,1.3-3,3-3h18.9c1.7,0,3,1.3,3,3v18.9
				C28.4,33.8,27,35.2,25.4,35.2z"/>
		</g>
	</g>
	<g>
		<g>
			<path class="st1" d="M6.9,7.4c0-2.4,1.9-4.3,4.3-4.3h14.9V1.7H11.2C8,1.7,5.5,4.3,5.5,7.4v4.8h1.4V7.4z"/>
			<rect x="5.5" y="15.2" class="st1" width="1.4" height="2.2"/>
			<path class="st1" d="M29.5,34c2,0,3.6-1.6,3.6-3.6V5.4H13c-2,0-3.6,1.6-3.6,3.6v8.8c-3.4,0.3-6,3.2-6,6.6s2.6,6.3,6,6.6V34H29.5z
				 M10.6,8.9c0-1.3,1.1-2.4,2.4-2.4h18.9v24c0,1.3-1.1,2.4-2.4,2.4H10.6V31c3.5-0.2,6.2-3.1,6.2-6.6c0-3.5-2.7-6.4-6.2-6.6V8.9z
				 M4.9,24.4c0-2.9,2.4-5.2,5.2-5.2s5.2,2.4,5.2,5.2s-2.4,5.2-5.2,5.2S4.9,27.2,4.9,24.4z"/>
			<path class="st1" d="M35.1,32.6c0,2.4-1.9,4.3-4.3,4.3h-11v1.4h11c3.1,0,5.7-2.6,5.7-5.7v-2.4h-1.4V32.6z"/>
			<rect x="35.1" y="25.3" class="st1" width="1.4" height="1.8"/>
			<path class="st1" d="M23,31.5c0.7,0,1.5-0.3,2.1-0.9l1.3-1.3l-1-1l-1.3,1.3c-0.6,0.6-1.5,0.6-2.1,0c-0.3-0.3-0.4-0.7-0.4-1.1
				s0.2-0.8,0.4-1.1l1.3-1.3l-1-1L21,26.6c-0.5,0.5-0.9,1.3-0.9,2.1s0.3,1.5,0.9,2.1C21.5,31.3,22.3,31.5,23,31.5z"/>
			<path class="st1" d="M24.2,23.3l1,1l1.3-1.3c0.6-0.6,1.5-0.6,2.1,0c0.6,0.6,0.6,1.5,0,2.1l-1.3,1.3l1,1l1.3-1.3
				c1.1-1.1,1.1-3,0-4.1c-1.1-1.1-3-1.1-4.1,0L24.2,23.3z"/>
			
				<rect x="23.2" y="25.6" transform="matrix(0.7071 -0.7071 0.7071 0.7071 -11.1948 25.6345)" class="st1" width="4.2" height="1.4"/>
			<rect x="20.6" y="10.1" class="st1" width="6.9" height="1.4"/>
			<rect x="20.6" y="14.4" class="st1" width="6.9" height="1.4"/>
			<rect x="15.6" y="9.7" class="st1" width="2.2" height="2.2"/>
			<rect x="15.6" y="14.1" class="st1" width="2.2" height="2.2"/>
			<polygon class="st1" points="8.1,21.7 5.4,24.4 8.1,27 9.7,25.4 8.6,24.4 9.7,23.3 			"/>
			<polygon class="st1" points="12.1,27 14.8,24.4 12.1,21.7 10.5,23.3 11.6,24.4 10.5,25.4 			"/>
		</g>
	</g>
</g>
</svg>
