<?xml version="1.0" encoding="utf-8"?>
<!-- Generator: Adobe Illustrator 21.0.0, SVG Export Plug-In . SVG Version: 6.00 Build 0)  -->
<svg version="1.1" id="Layer_1" xmlns="http://www.w3.org/2000/svg" xmlns:xlink="http://www.w3.org/1999/xlink" x="0px" y="0px"
	 viewBox="0 0 40 40" style="enable-background:new 0 0 40 40;" xml:space="preserve">
<style type="text/css">
	.st0{opacity:0.1;}
	.st1{fill:#29367B;}
</style>
<g>
	<g class="st0">
		<g>
			<path class="st1" d="M26.5,35.2H7.5c-1.7,0-3-1.3-3-3V13.2c0-1.7,1.3-3,3-3h18.9c1.7,0,3,1.3,3,3v18.9
				C29.5,33.8,28.1,35.2,26.5,35.2z"/>
		</g>
	</g>
	<g>
		<g>
			<rect x="15.6" y="10" class="st1" width="8.3" height="1.4"/>
			<rect x="15.6" y="13.8" class="st1" width="8.3" height="1.4"/>
			<polygon class="st1" points="27.5,31.6 27.5,29.6 29.5,29.6 29.5,27.4 27.5,27.4 27.5,25.4 25.3,25.4 25.3,27.4 23.3,27.4 
				23.3,29.6 25.3,29.6 25.3,31.6 			"/>
			<path class="st1" d="M33.1,28.5c0-3.7-3-6.7-6.7-6.7c-3.7,0-6.7,3-6.7,6.7s3,6.7,6.7,6.7C30.1,35.2,33.1,32.2,33.1,28.5z
				 M21.2,28.5c0-2.9,2.4-5.2,5.2-5.2s5.2,2.4,5.2,5.2s-2.4,5.2-5.2,5.2S21.2,31.4,21.2,28.5z"/>
			<path class="st1" d="M17.1,31H2.5c-0.2-0.2-0.5-0.4-0.8-0.4c-0.6,0-1.1,0.5-1.1,1.1c0,0.6,0.5,1.1,1.1,1.1c0.3,0,0.6-0.2,0.8-0.4
				h14.6V31z"/>
			<path class="st1" d="M7.5,7.4c0-2.4,1.9-4.3,4.3-4.3h14.9V1.7H11.8c-3.1,0-5.7,2.6-5.7,5.7v11.8h1.4V7.4z"/>
			<rect x="6.1" y="22.2" class="st1" width="1.4" height="2.2"/>
			<path class="st1" d="M34.2,15.2V8.3h-3.9v-3H13c-2,0-3.6,1.6-3.6,3.6v18.5H7.8C7.6,27.2,7.3,27,7,27c-0.6,0-1.1,0.5-1.1,1.1
				s0.5,1.1,1.1,1.1c0.3,0,0.6-0.2,0.8-0.4h6.7v-8.7h15.7c2.1,0,3.9-1.5,4.2-3.6h3.6v20.3H14.1l-2.6-2.6H7.9
				c-0.2-0.3-0.5-0.5-0.9-0.5c-0.6,0-1.1,0.5-1.1,1.1s0.5,1.1,1.1,1.1c0.3,0,0.5-0.1,0.7-0.3h3.2l2.6,2.6h25.9V15.2H34.2z
				 M29.2,18.7H13.1v8.7h-2.6V8.9c0-1.3,1.1-2.4,2.4-2.4h16.2V18.7z M33.1,15.2L33.1,15.2l0,0.7c0,1.5-1.2,2.8-2.7,2.8V9.5h2.7V15.2
				z"/>
		</g>
	</g>
</g>
</svg>
