<?xml version="1.0" encoding="utf-8"?>
<!-- Generator: Adobe Illustrator 21.0.0, SVG Export Plug-In . SVG Version: 6.00 Build 0)  -->
<svg version="1.1" id="Layer_1" xmlns="http://www.w3.org/2000/svg" xmlns:xlink="http://www.w3.org/1999/xlink" x="0px" y="0px"
	 viewBox="0 0 40 40" style="enable-background:new 0 0 40 40;" xml:space="preserve">
<style type="text/css">
	.st0{opacity:0.1;}
	.st1{fill:#29367B;}
</style>
<g>
	<g class="st0">
		<g>
			<path class="st1" d="M25.8,35.2H6.9c-1.7,0-3-1.3-3-3V13.2c0-1.7,1.3-3,3-3h18.9c1.7,0,3,1.3,3,3v18.9
				C28.8,33.8,27.5,35.2,25.8,35.2z"/>
		</g>
	</g>
	<g>
		<g>
			<polygon class="st1" points="22.4,23.2 24.9,20.7 23.9,19.7 22.4,21.2 20.9,19.7 19.9,20.7 			"/>
			<polygon class="st1" points="24.9,17 23.9,16 22.4,17.6 20.9,16 19.9,17 22.4,19.6 			"/>
			<path class="st1" d="M20.3,28.5c0.2-0.2,0.4-0.5,0.4-0.8c0-0.6-0.5-1.1-1.1-1.1s-1.1,0.5-1.1,1.1c0,0.3,0.2,0.6,0.4,0.8v4.3
				l2.5,2.5v1.6h-4.3v1.4h5.7v-3.6l-2.5-2.5V28.5z"/>
			<path class="st1" d="M5.3,7.4c0-2.4,1.9-4.3,4.3-4.3H26V1.7H9.6c-3.1,0-5.7,2.6-5.7,5.7v5.4h1.4V7.4z"/>
			<rect x="3.9" y="15.8" class="st1" width="1.4" height="2.2"/>
			<polygon class="st1" points="8,33.9 10.7,33.9 10.7,35.3 14.3,31.6 10.7,28 10.7,29.4 8,29.4 			"/>
			<circle class="st1" cx="13.6" cy="11.7" r="1.1"/>
			<path class="st1" d="M10.2,15.4H17V8.6h-6.8V15.4z M11.4,9.7h4.5v4.5h-0.3c-0.5-0.6-1.2-0.9-2-0.9h-0.1c-0.8,0-1.5,0.4-2,0.9
				h-0.3V9.7z"/>
			<path class="st1" d="M33.7,18.6V8.9h-4.2V6H11.1c-2,0-3.6,1.6-3.6,3.6V24h3.3V25c-0.1,0-0.2,0-0.3,0c-3.7,0-6.7,3-6.7,6.7
				s3,6.7,6.7,6.7c3.7,0,6.7-3,6.7-6.7c0-3.1-2.1-5.6-4.9-6.4v-2.9c0-1.3,1-2.3,2.3-2.3h3.8v-1.4h-3.8c-2,0-3.7,1.7-3.7,3.7v0.6H8.7
				V9.5c0-1.3,1.1-2.4,2.4-2.4h11v7l2.3-2.3l2.3,2.3v-7h1.6v9.8h1.1v-6.9h3.1v8.5H26v0.1h-0.1v6.1c0,1.7,1.3,3,3,3s3-1.3,3-3V20h2.8
				v16.8h-8.5v-5.2c0.2-0.2,0.4-0.5,0.4-0.8c0-0.6-0.5-1.1-1.1-1.1s-1.1,0.5-1.1,1.1c0,0.3,0.2,0.6,0.4,0.8v6.6h11.3V18.6H33.7z
				 M15.8,31.6c0,2.9-2.4,5.2-5.2,5.2s-5.2-2.4-5.2-5.2s2.4-5.2,5.2-5.2S15.8,28.7,15.8,31.6z M25.6,11.4l-1.1-1.1l-1.1,1.1V7.1h2.3
				V11.4z M30.5,24.8c0,0.9-0.7,1.6-1.6,1.6s-1.6-0.7-1.6-1.6V20h3.2V24.8z"/>
			<circle class="st1" cx="28.9" cy="24.7" r="1"/>
		</g>
	</g>
</g>
</svg>
