<?xml version="1.0" encoding="utf-8"?>
<!-- Generator: Adobe Illustrator 21.0.0, SVG Export Plug-In . SVG Version: 6.00 Build 0)  -->
<svg version="1.1" id="Layer_1" xmlns="http://www.w3.org/2000/svg" xmlns:xlink="http://www.w3.org/1999/xlink" x="0px" y="0px"
	 viewBox="0 0 40 40" style="enable-background:new 0 0 40 40;" xml:space="preserve">
<style type="text/css">
	.st0{opacity:0.1;fill:#29367B;}
	.st1{fill:#29367B;}
</style>
<g>
	<circle class="st0" cx="16.7" cy="20" r="10.4"/>
	<g>
		<g>
			<path class="st1" d="M20,13.8c-2.2,0-4,1.8-4,4s1.8,4,4,4s4-1.8,4-4S22.2,13.8,20,13.8z M20,20c-1.3,0-2.3-1-2.3-2.3
				c0-1.3,1-2.3,2.3-2.3c1.3,0,2.3,1,2.3,2.3C22.3,19,21.3,20,20,20z"/>
			<path class="st1" d="M20,32.6C20,32.6,20,32.6,20,32.6c-3.8,0-7.3-1.6-9.7-4.5l-0.9,0.7c2.6,3.1,6.4,4.9,10.5,4.9c0,0,0,0,0,0
				c0.9,0,1.9-0.1,2.8-0.3l-0.2-1.1C21.7,32.5,20.9,32.6,20,32.6z"/>
			<path class="st1" d="M24.6,31.7l0.4,1.1c0.6-0.2,1.2-0.5,1.8-0.9l-0.6-1C25.8,31.2,25.2,31.5,24.6,31.7z"/>
			<path class="st1" d="M32.4,14.1c0.1-0.3,0.1-0.6,0.1-0.9c0-2.2-1.8-4-4-4c0,0,0,0,0,0c-1.7-1.3-3.6-2.2-5.7-2.6
				c-0.9-0.2-1.8-0.3-2.8-0.3c-3.7,0-7.1,1.4-9.7,4s-4,6-4,9.7c0,1.8,0.4,3.6,1.1,5.3l1-0.4c-0.7-1.5-1-3.2-1-4.9
				c0-3.4,1.3-6.5,3.7-8.9c2.4-2.4,5.5-3.7,8.9-3.7c0.8,0,1.7,0.1,2.5,0.2c1.6,0.3,3.1,0.9,4.4,1.8c-0.4,0.2-0.8,0.4-1.2,0.8
				c-1.7-1-3.7-1.6-5.8-1.6C13.8,8.7,8.7,13.8,8.7,20S13.8,31.3,20,31.3S31.3,26.2,31.3,20c0-1.2-0.2-2.4-0.6-3.5
				c0.4-0.3,0.7-0.6,1-1c0.5,1.4,0.8,2.9,0.8,4.5c0,4-1.8,7.6-5,10l0.7,0.9c3.4-2.6,5.4-6.6,5.4-10.9C33.7,17.9,33.2,15.9,32.4,14.1
				z M20,29.9c-2.4,0-4.6-0.9-6.3-2.3c1.4-2,3.7-3.3,6.2-3.3h0.3c2.5,0,4.8,1.3,6.2,3.3C24.6,29,22.4,29.9,20,29.9z M27.5,26.4
				c-1.7-2.4-4.5-3.8-7.4-3.8h-0.3c-2.9,0-5.7,1.4-7.4,3.8c-1.5-1.7-2.3-3.9-2.3-6.4c0-5.5,4.4-9.9,9.9-9.9c1.8,0,3.5,0.5,4.9,1.3
				c-0.3,0.5-0.4,1.1-0.4,1.8c0,2.2,1.8,4,4,4c0.3,0,0.7-0.1,1-0.1c0.3,0.9,0.4,1.9,0.4,2.9C29.9,22.4,29,24.7,27.5,26.4z
				 M31.1,14.2c-0.2,0.5-0.5,0.9-0.8,1.2c-0.1,0.1-0.1,0.1-0.2,0.2c-0.3,0.2-0.5,0.3-0.8,0.4C29.2,16,29.1,16,29,16
				c-0.2,0-0.4,0.1-0.6,0.1c-1.6,0-2.9-1.3-2.9-2.9c0-0.4,0.1-0.8,0.3-1.2c0-0.1,0.1-0.1,0.1-0.2c0.2-0.3,0.3-0.5,0.6-0.7
				c0.1-0.1,0.1-0.1,0.2-0.2c0.4-0.3,0.8-0.5,1.3-0.5c0.1,0,0.3,0,0.4,0c0.5,0,0.9,0.1,1.3,0.3c0.1,0.1,0.3,0.2,0.4,0.3l-1.7,1.7
				l-0.2,0.2L28.1,13l-0.8-0.8L27,12.7l-0.2,0.2l-0.4,0.4l1.8,1.8l0.2-0.2l0.2-0.2l0.7-0.7l0.2-0.2l1.7-1.7c0.1,0.3,0.2,0.6,0.2,0.9
				c0,0.1,0,0.2,0,0.3C31.3,13.6,31.3,13.9,31.1,14.2z"/>
		</g>
	</g>
</g>
</svg>
