<?xml version="1.0" encoding="utf-8"?>
<!-- Generator: Adobe Illustrator 21.0.0, SVG Export Plug-In . SVG Version: 6.00 Build 0)  -->
<svg version="1.1" id="Layer_1" xmlns="http://www.w3.org/2000/svg" xmlns:xlink="http://www.w3.org/1999/xlink" x="0px" y="0px"
	 viewBox="0 0 68 26" style="enable-background:new 0 0 68 26;" xml:space="preserve">
<style type="text/css">
	.st0{fill:none;stroke:#28387C;stroke-width:1.1339;stroke-miterlimit:10;}
	.st1{fill:none;stroke:#28387C;stroke-width:1.4132;stroke-miterlimit:10;}
</style>
<g>
	<g>
		<path class="st0" d="M7.1,14.6v-6c0-2.8,2.2-5,5-5h18.8"/>
		<line class="st0" x1="39.1" y1="3.6" x2="35.5" y2="3.6"/>
	</g>
	<g>
		<path class="st0" d="M60.9,11.4v6c0,2.8-2.2,5-5,5H37.1"/>
		<line class="st0" x1="28.9" y1="22.4" x2="32.5" y2="22.4"/>
	</g>
	<path class="st1" d="M55.4,20H12.5c-1.7,0-3-1.3-3-3V9c0-1.7,1.3-3,3-3h42.9c1.7,0,3,1.3,3,3v8C58.4,18.7,57.1,20,55.4,20z"/>
</g>
</svg>
