<?xml version="1.0" encoding="utf-8"?>
<!-- Generator: Adobe Illustrator 21.0.0, SVG Export Plug-In . SVG Version: 6.00 Build 0)  -->
<svg version="1.1" id="Layer_1" xmlns="http://www.w3.org/2000/svg" xmlns:xlink="http://www.w3.org/1999/xlink" x="0px" y="0px"
	 viewBox="0 0 68 26" style="enable-background:new 0 0 68 26;" xml:space="preserve">
<style type="text/css">
	.st0{fill:none;stroke:#28387C;stroke-width:1.1339;stroke-miterlimit:10;}
	.st1{fill:#28387C;stroke:#28387C;stroke-width:1.4132;stroke-miterlimit:10;}
</style>
<g>
	<g>
		<path class="st0" d="M12.1,24.5H6.5c-2.8,0-5-2.2-5-5v-13c0-2.8,2.2-5,5-5h27.4"/>
		<line class="st0" x1="17.3" y1="24.5" x2="14.1" y2="24.5"/>
		<line class="st0" x1="50.5" y1="24.5" x2="22.1" y2="24.5"/>
		<path class="st0" d="M43.6,1.5h17.9c2.8,0,5,2.2,5,5v13c0,2.8-2.2,5-5,5h-4.3"/>
		<line class="st0" x1="42.1" y1="1.5" x2="38.5" y2="1.5"/>
	</g>
	<path class="st1" d="M59.9,21H8.1c-1.7,0-3-1.3-3-3V8c0-1.7,1.3-3,3-3h51.9c1.7,0,3,1.3,3,3v10C62.9,19.7,61.6,21,59.9,21z"/>
</g>
</svg>
