<?xml version="1.0" encoding="utf-8"?>
<!-- Generator: Adobe Illustrator 21.0.0, SVG Export Plug-In . SVG Version: 6.00 Build 0)  -->
<svg version="1.1" id="Layer_1" xmlns="http://www.w3.org/2000/svg" xmlns:xlink="http://www.w3.org/1999/xlink" x="0px" y="0px"
	 viewBox="0 0 16 16" style="enable-background:new 0 0 16 16;" xml:space="preserve">
<style type="text/css">
	.st0{fill:#28387C;stroke:#28387C;stroke-width:1.0433;stroke-miterlimit:10;}
	.st1{fill:none;stroke:#28387C;stroke-width:0.8346;stroke-miterlimit:10;}
</style>
<g>
	<path class="st0" d="M10.1,11.5H5.9c-0.7,0-1.3-0.6-1.3-1.3V5.9c0-0.7,0.6-1.3,1.3-1.3h4.3c0.7,0,1.3,0.6,1.3,1.3v4.3
		C11.5,10.9,10.9,11.5,10.1,11.5z"/>
	<path class="st1" d="M5.1,13.2c-1.3,0-2.3-1.1-2.3-2.3V5.1c0-1.3,1.1-2.3,2.3-2.3h5.8c1.3,0,2.3,1.1,2.3,2.3v3.2"/>
	<line class="st1" x1="8" y1="13.2" x2="6.7" y2="13.2"/>
	<path class="st1" d="M13.2,9.3v1.6c0,1.3-1.1,2.3-2.3,2.3h-0.6H9.4"/>
</g>
</svg>
