<?xml version="1.0" encoding="utf-8"?>
<!-- Generator: Adobe Illustrator 21.0.0, SVG Export Plug-In . SVG Version: 6.00 Build 0)  -->
<svg version="1.1" id="Layer_1" xmlns="http://www.w3.org/2000/svg" xmlns:xlink="http://www.w3.org/1999/xlink" x="0px" y="0px"
	 viewBox="0 0 64 64" style="enable-background:new 0 0 64 64;" xml:space="preserve">
<style type="text/css">
	.st0{fill:none;stroke:#8E8BB2;stroke-width:1.4343;stroke-miterlimit:10;}
	.st1{fill:none;stroke:#8E8BB2;stroke-width:1.4343;stroke-miterlimit:10;stroke-dasharray:1.4921,1.4921;}
	.st2{fill:none;stroke:#8E8BB2;stroke-width:1.4343;stroke-miterlimit:10;stroke-dasharray:1.4236,1.4236;}
	.st3{fill:#E3E8F6;stroke:#FFFFFF;stroke-width:1.4343;stroke-miterlimit:10;}
	.st4{fill:#CDD1E2;}
	.st5{fill:#FFFFFF;}
	.st6{fill:none;stroke:#CDD1E2;stroke-width:1.4343;stroke-miterlimit:10;}
	.st7{fill:#28387C;stroke:#28387C;stroke-width:1.4343;stroke-miterlimit:10;}
	.st8{fill:none;stroke:#8E8BB2;stroke-width:1.4343;stroke-miterlimit:10;stroke-dasharray:1.6967,1.6967;}
	.st9{fill:none;stroke:#8E8BB2;stroke-width:1.4343;stroke-miterlimit:10;stroke-dasharray:1.5798,1.5798;}
	.st10{fill:none;stroke:#28387C;stroke-width:1.4343;stroke-miterlimit:10;}
	.st11{fill:none;stroke:#28387C;stroke-width:1.4343;stroke-miterlimit:10;stroke-dasharray:1.6565,1.6565;}
	.st12{opacity:0.45;fill:#28387C;enable-background:new    ;}
	.st13{fill:none;stroke:#28387C;stroke-width:1.9124;stroke-miterlimit:10;}
	.st14{fill:#FFFFFF;stroke:#28387C;stroke-width:1.4343;stroke-miterlimit:10;}
	.st15{fill:#FFFFFF;stroke:#8E8BB2;stroke-width:1.4343;stroke-miterlimit:10;}
</style>
<g>
	<g>
		<g>
			<line class="st0" x1="50.3" y1="30.3" x2="50.3" y2="31"/>
			<line class="st1" x1="50.3" y1="32.5" x2="50.3" y2="46.7"/>
			<polyline class="st0" points="50.3,47.4 50.3,48.1 49.5,48.1 			"/>
			<line class="st2" x1="48.1" y1="48.1" x2="31.8" y2="48.1"/>
			<line class="st0" x1="31" y1="48.1" x2="30.3" y2="48.1"/>
		</g>
	</g>
	<g>
		<path class="st3" d="M43.3,43.7h-9.8c-2.1,0-3.8-1.7-3.8-3.8v-10c0-2.1,1.7-3.8,3.8-3.8h9.8c2.1,0,3.8,1.7,3.8,3.8v10
			C47.1,41.9,45.4,43.7,43.3,43.7z"/>
		<path class="st3" d="M19.5,43.7H9.7c-2.1,0-3.8-1.7-3.8-3.8v-10c0-2.1,1.7-3.8,3.8-3.8h9.8c2.1,0,3.8,1.7,3.8,3.8v10
			C23.3,41.9,21.6,43.7,19.5,43.7z"/>
	</g>
	<g>
		<rect x="21" y="41.8" class="st4" width="5.5" height="9.4"/>
		<rect x="26.5" y="41.8" class="st5" width="5.4" height="9.4"/>
		<path class="st6" d="M31.7,51.3H21.3c-0.2,0-0.4-0.2-0.4-0.4v-9.2c0-0.2,0.2-0.4,0.4-0.4h10.3c0.2,0,0.4,0.2,0.4,0.4v9.2
			C32,51.1,31.9,51.3,31.7,51.3z"/>
		<g>
			<path class="st7" d="M17.8,44.2h5c0.1,0,0.2,0,0.3-0.1l3.2-2.8h-5.4c-0.1,0-0.2,0-0.3,0.1L17.7,44C17.6,44,17.7,44.2,17.8,44.2z"
				/>
			<path class="st7" d="M35.2,44.2h-5c-0.1,0-0.2,0-0.3-0.1l-3.2-2.8h5.4c0.1,0,0.2,0,0.3,0.1l2.9,2.6C35.4,44,35.3,44.2,35.2,44.2z
				"/>
		</g>
	</g>
	<g>
		<g>
			<line class="st0" x1="44" y1="21.9" x2="44.7" y2="21.9"/>
			<line class="st8" x1="46.4" y1="21.9" x2="48.9" y2="21.9"/>
			<polyline class="st0" points="49.8,21.9 50.5,21.9 50.5,22.6 			"/>
			<line class="st9" x1="50.5" y1="24.2" x2="50.5" y2="32.9"/>
			<line class="st0" x1="50.5" y1="33.6" x2="50.5" y2="34.4"/>
		</g>
	</g>
	<g>
		<g>
			<line class="st10" x1="26.4" y1="40.9" x2="26.4" y2="40.2"/>
			<line class="st11" x1="26.4" y1="38.6" x2="26.4" y2="32.8"/>
			<line class="st10" x1="26.4" y1="31.9" x2="26.4" y2="31.2"/>
		</g>
	</g>
	<g>
		<path class="st5" d="M31.6,30.9H21.4c-2.1,0-3.8-1.7-3.8-3.8V16.6c0-2.1,1.7-3.8,3.8-3.8h10.3c2.1,0,3.8,1.7,3.8,3.8v10.5
			C35.5,29.2,33.8,30.9,31.6,30.9z"/>
		<path class="st12" d="M30,28.1h-7c-1.5,0-2.6-1.2-2.6-2.6v-7.2c0-1.5,1.2-2.6,2.6-2.6h7c1.5,0,2.6,1.2,2.6,2.6v7.2
			C32.7,26.9,31.5,28.1,30,28.1z"/>
		<path class="st13" d="M17.5,18.3v-1.7c0-2.1,1.7-3.8,3.8-3.8h10.3c2.1,0,3.8,1.7,3.8,3.8v1.7"/>
		<path class="st13" d="M35.5,25.4v1.7c0,2.1-1.7,3.8-3.8,3.8H21.4c-2.1,0-3.8-1.7-3.8-3.8v-1.7"/>
		<g>
			<g>
				<g>
					<line class="st10" x1="17.9" y1="21.9" x2="8.3" y2="21.9"/>
					<circle class="st14" cx="8.7" cy="21.9" r="1.6"/>
					<g>
						<g>
							<polyline class="st10" points="23.1,25.4 16.4,25.4 13.2,28.6 							"/>
							<circle class="st10" cx="12.4" cy="29.4" r="1.6"/>
						</g>
						<g>
							<polyline class="st10" points="23.1,18.3 16.4,18.3 13.2,15.1 							"/>
							<circle class="st10" cx="12.4" cy="14.3" r="1.6"/>
						</g>
					</g>
				</g>
			</g>
			<g>
				<g>
					<line class="st10" x1="35.1" y1="21.9" x2="42.8" y2="21.9"/>
					<circle class="st14" cx="44.3" cy="21.9" r="1.6"/>
					<g>
						<g>
							<polyline class="st10" points="29.9,25.4 36.6,25.4 39.8,28.6 							"/>
							<circle class="st10" cx="40.6" cy="29.4" r="1.6"/>
						</g>
						<g>
							<polyline class="st10" points="29.9,18.3 36.6,18.3 39.8,15.1 							"/>
							<circle class="st10" cx="40.6" cy="14.3" r="1.6"/>
						</g>
					</g>
				</g>
			</g>
		</g>
	</g>
	<g>
		<g>
			<circle class="st15" cx="50.5" cy="38.5" r="7.6"/>
			<g>
				<g>
					<g>
						<circle class="st4" cx="50.5" cy="37" r="2"/>
						<circle class="st0" cx="50.5" cy="37" r="2"/>
					</g>
					<g>
						<path class="st4" d="M54.3,43.7c-0.6-1.5-2.1-2.6-3.8-2.6s-3.2,1.1-3.8,2.6c-0.2,0.4-0.1,0.9,0.3,1.1c2.1,1.3,4.7,1.3,7.1,0
							C54.4,44.6,54.5,44.1,54.3,43.7z"/>
						<path class="st0" d="M54.3,43.7c-0.6-1.5-2.1-2.6-3.8-2.6s-3.2,1.1-3.8,2.6c-0.2,0.4-0.1,0.9,0.3,1.1c2.1,1.3,4.7,1.3,7.1,0
							C54.4,44.6,54.5,44.1,54.3,43.7z"/>
					</g>
				</g>
			</g>
		</g>
	</g>
</g>
</svg>
