<?xml version="1.0" encoding="utf-8"?>
<!-- Generator: Adobe Illustrator 21.0.0, SVG Export Plug-In . SVG Version: 6.00 Build 0)  -->
<svg version="1.1" id="Layer_1" xmlns="http://www.w3.org/2000/svg" xmlns:xlink="http://www.w3.org/1999/xlink" x="0px" y="0px"
	 viewBox="0 0 64 64" style="enable-background:new 0 0 64 64;" xml:space="preserve">
<style type="text/css">
	.st0{fill:#FFFFFF;}
	.st1{fill:none;stroke:#CDD1E2;stroke-width:1.4343;stroke-miterlimit:10;}
	.st2{fill:none;stroke:#8E8BB2;stroke-width:1.4343;stroke-miterlimit:10;}
	.st3{fill:none;stroke:#8E8BB2;stroke-width:1.4343;stroke-miterlimit:10;stroke-dasharray:1.3767,1.3767;}
	.st4{fill:none;stroke:#8E8BB2;stroke-width:1.4343;stroke-miterlimit:10;stroke-dasharray:1.5182,1.5182;}
	.st5{fill:#8E8BB2;}
	.st6{opacity:0.6;fill:#CDD1E2;enable-background:new    ;}
	.st7{fill:#CDD1E2;}
	.st8{fill:#28387C;}
	.st9{fill:#28387C;stroke:#28387C;stroke-width:1.4343;stroke-miterlimit:10;}
</style>
<g>
	<g>
		<path class="st0" d="M41.1,36.3H11.4c-2.1,0-3.8-1.7-3.8-3.8V15.1c0-2.1,1.7-3.8,3.8-3.8H41c2.1,0,3.8,1.7,3.8,3.8v17.4
			C44.9,34.6,43.2,36.3,41.1,36.3z"/>
		<path class="st1" d="M18.4,36.3h-7c-2.1,0-3.8-1.7-3.8-3.8V15.1c0-2.1,1.7-3.8,3.8-3.8H41c2.1,0,3.8,1.7,3.8,3.8v13.5"/>
	</g>
	<g>
		<g>
			<line class="st2" x1="45.8" y1="22" x2="45.8" y2="22.8"/>
			<line class="st3" x1="45.8" y1="24.1" x2="45.8" y2="48.2"/>
			<polyline class="st2" points="45.8,48.9 45.8,49.6 45.1,49.6 			"/>
			<line class="st4" x1="43.6" y1="49.6" x2="35.2" y2="49.6"/>
			<line class="st2" x1="34.5" y1="49.6" x2="33.7" y2="49.6"/>
		</g>
	</g>
	<g>
		<g>
			<path class="st5" d="M18,53.2c-1-0.1-2-0.4-2.9-0.8l-0.3-0.2l0.1-0.4c0.1-0.6,0.2-1.3,0.4-2.1c-0.3-0.2-0.6-0.4-0.8-0.6
				c-0.2-0.2-0.5-0.4-0.7-0.7c-0.7,0.4-1.3,0.6-1.9,0.9l-0.4,0.1l-0.2-0.3c-0.6-0.8-1.1-1.6-1.4-2.6l-0.1-0.4l0.3-0.2
				c0.5-0.4,1.1-0.8,1.8-1.2c-0.2-0.6-0.2-1.3-0.2-2c-0.7-0.2-1.4-0.5-2-0.7H9.2l0.1-0.4c0.1-1,0.4-2,0.8-2.9l0.2-0.3l0.4,0.1
				c0.6,0.1,1.3,0.2,2.1,0.4c0.2-0.3,0.4-0.6,0.6-0.8c0.2-0.2,0.4-0.5,0.7-0.7c-0.4-0.7-0.6-1.3-0.9-1.9L13,35.1l0.3-0.2
				c0.8-0.6,1.6-1.1,2.6-1.4l0.4-0.1l0.2,0.3c0.4,0.5,0.8,1.1,1.2,1.8c0.6-0.1,1.2-0.2,1.8-0.2h0.1c0.2-0.7,0.5-1.4,0.7-2l0.2-0.3
				l0.4,0.1c1,0.1,2,0.4,2.9,0.8l0.3,0.2L24,34.3c-0.1,0.6-0.2,1.3-0.4,2.1c0.3,0.2,0.6,0.4,0.8,0.6c0.2,0.2,0.5,0.4,0.7,0.7
				c0.7-0.4,1.3-0.6,1.9-0.9l0.4-0.1l0.2,0.3c0.6,0.8,1.1,1.6,1.4,2.6l0.1,0.4l-0.3,0.2c-0.5,0.4-1.1,0.8-1.8,1.2
				c0.2,0.6,0.2,1.3,0.2,2c0.7,0.2,1.4,0.5,2,0.7l0.3,0.2l-0.1,0.4c-0.1,1-0.4,2-0.8,2.9l-0.2,0.3L28,47.8c-0.6-0.1-1.3-0.2-2.1-0.4
				c-0.2,0.3-0.4,0.6-0.6,0.8s-0.4,0.5-0.7,0.7c0.4,0.7,0.6,1.3,0.9,1.9l0.1,0.4l-0.3,0.2c-0.8,0.6-1.6,1.1-2.6,1.4l-0.4,0.1
				l-0.2-0.3c-0.4-0.5-0.8-1.1-1.2-1.8c-0.6,0.1-1.2,0.2-1.8,0.2H19c-0.2,0.7-0.5,1.4-0.7,2l-0.2,0.3L18,53.2z M19.4,40
				c-0.9,0-1.8,0.4-2.4,1.2c-0.5,0.6-0.8,1.4-0.7,2.3c0.1,0.8,0.5,1.6,1.1,2.1c0.6,0.4,1.2,0.7,1.9,0.7c0.9,0,1.8-0.4,2.4-1.2
				c0.5-0.6,0.8-1.4,0.7-2.3c-0.1-0.8-0.5-1.6-1.1-2.1C20.8,40.2,20.1,40,19.4,40z"/>
		</g>
		<g>
			<path class="st0" d="M20.8,33.4c0.9,0.1,1.9,0.4,2.7,0.8c-0.1,0.8-0.3,1.6-0.5,2.4c0.4,0.2,0.7,0.4,1.1,0.7
				c0.3,0.3,0.6,0.6,0.9,0.9c0.7-0.4,1.5-0.7,2.2-1c0.6,0.7,1,1.6,1.4,2.5c-0.7,0.5-1.3,0.9-2.1,1.3c0.2,0.8,0.3,1.7,0.3,2.6
				c0.8,0.2,1.5,0.5,2.3,0.8c-0.1,0.9-0.4,1.9-0.8,2.7c-0.8-0.1-1.6-0.3-2.4-0.5c-0.2,0.4-0.4,0.7-0.7,1.1c-0.3,0.3-0.6,0.6-0.9,0.9
				c0.4,0.7,0.7,1.5,1,2.2c-0.7,0.6-1.6,1-2.5,1.4c-0.5-0.7-0.9-1.3-1.3-2.1c-0.7,0.2-1.4,0.3-2.1,0.3c-0.2,0-0.3,0-0.5,0
				c-0.2,0.8-0.5,1.5-0.8,2.3c-0.9-0.1-1.9-0.4-2.7-0.8c0.1-0.8,0.3-1.6,0.5-2.4c-0.4-0.2-0.7-0.4-1.1-0.7c-0.3-0.3-0.6-0.6-0.9-0.9
				c-0.7,0.4-1.5,0.7-2.2,1c-0.6-0.7-1-1.6-1.4-2.5c0.7-0.5,1.3-0.9,2.1-1.3c-0.2-0.8-0.3-1.7-0.3-2.6c-0.8-0.2-1.5-0.5-2.3-0.8
				c0.1-0.9,0.4-1.9,0.8-2.7c0.8,0.1,1.6,0.3,2.4,0.5c0.2-0.4,0.4-0.7,0.7-1.1c0.3-0.3,0.6-0.6,0.9-0.9c-0.4-0.7-0.7-1.5-1-2.2
				c0.7-0.6,1.6-1,2.5-1.4c0.5,0.7,0.9,1.3,1.3,2.1c0.7-0.2,1.4-0.3,2.1-0.3c0.2,0,0.3,0,0.5,0C20.2,35,20.4,34.2,20.8,33.4
				 M19.4,46.7c1.1,0,2.1-0.5,2.8-1.3c1.2-1.6,1-3.8-0.6-5.1c-0.7-0.5-1.5-0.8-2.3-0.8c-1.1,0-2.1,0.5-2.8,1.3
				c-1.2,1.6-1,3.8,0.6,5.1C17.9,46.4,18.6,46.7,19.4,46.7 M20.2,32.3L19.8,33c-0.2,0.5-0.4,1.1-0.7,1.7c-0.4,0-0.9,0.1-1.3,0.1
				c-0.3-0.6-0.7-1-1-1.5l-0.5-0.6L15.7,33c-1,0.4-1.9,0.9-2.7,1.5L12.3,35l0.3,0.7c0.2,0.5,0.4,1.1,0.7,1.6
				c-0.2,0.2-0.3,0.3-0.4,0.5c-0.1,0.2-0.3,0.3-0.4,0.5c-0.6-0.2-1.2-0.3-1.8-0.3L10,37.9l-0.3,0.7c-0.4,0.9-0.7,1.9-0.9,3l-0.1,0.8
				l0.7,0.3c0.5,0.2,1.1,0.4,1.7,0.7c0,0.4,0.1,0.9,0.1,1.3c-0.6,0.3-1,0.7-1.5,1l-0.6,0.5l0.3,0.7c0.4,1,0.9,1.9,1.5,2.7l0.5,0.6
				l0.7-0.3c0.5-0.2,1.1-0.4,1.6-0.7c0.2,0.2,0.3,0.3,0.5,0.4c0.2,0.1,0.3,0.3,0.5,0.4c-0.2,0.6-0.3,1.2-0.3,1.8l-0.1,0.7l0.7,0.3
				c0.9,0.4,1.9,0.7,3,0.9l0.8,0.1l0.3-0.7c0.2-0.5,0.4-1.1,0.7-1.7c0.4,0,0.9-0.1,1.3-0.1c0.3,0.6,0.7,1,1,1.5l0.5,0.6l0.7-0.3
				c1-0.4,1.9-0.9,2.7-1.5l0.6-0.5l-0.3-0.7c-0.2-0.5-0.4-1.1-0.7-1.6c0.2-0.2,0.3-0.3,0.4-0.5s0.3-0.3,0.4-0.5
				c0.6,0.2,1.2,0.3,1.8,0.3l0.7,0.1l0.3-0.7c0.4-0.9,0.7-1.9,0.9-3l0.1-0.8l-0.7-0.3c-0.5-0.2-1.1-0.4-1.7-0.7
				c0-0.4-0.1-0.9-0.1-1.3c0.6-0.3,1-0.7,1.5-1l0.6-0.5l-0.3-0.7c-0.4-1-0.9-1.9-1.5-2.7L27.5,36l-0.7,0.3c-0.5,0.2-1.1,0.4-1.6,0.7
				c-0.2-0.2-0.3-0.3-0.5-0.4c-0.2-0.1-0.3-0.3-0.5-0.4c0.2-0.6,0.3-1.2,0.3-1.8l0.1-0.7l-0.7-0.3c-0.9-0.4-1.9-0.7-3-0.9L20.2,32.3
				L20.2,32.3z M19.4,45.6c-0.6,0-1.1-0.2-1.6-0.6c-1.1-0.9-1.3-2.5-0.4-3.6c0.5-0.6,1.2-1,2-1c0.6,0,1.1,0.2,1.6,0.6
				c1.1,0.9,1.3,2.5,0.4,3.6C21,45.3,20.2,45.6,19.4,45.6L19.4,45.6z"/>
		</g>
	</g>
	<g>
		<g>
			<path class="st5" d="M35.3,42.7c-0.2,0-0.4,0-0.7,0h-0.4l-0.1-0.4c-0.1-0.5-0.2-1-0.2-1.5c-0.4-0.1-0.9-0.2-1.3-0.4
				c-0.4,0.4-0.7,0.8-1.1,1.1l-0.3,0.2L31,41.5c-0.7-0.4-1.2-0.9-1.7-1.5l-0.2-0.3l0.2-0.3c0.3-0.4,0.5-0.8,0.9-1.2
				c-0.1-0.2-0.2-0.4-0.3-0.6c-0.1-0.2-0.2-0.4-0.3-0.6c-0.2,0-0.4,0-0.6,0c-0.3,0-0.6,0-0.9,0h-0.4l-0.1-0.4
				c-0.2-0.7-0.2-1.5-0.2-2.3v-0.4l0.4-0.1c0.5-0.1,1-0.2,1.5-0.2c0.1-0.4,0.2-0.9,0.4-1.3c-0.4-0.4-0.7-0.7-1.1-1.1l-0.2-0.3
				l0.2-0.3c0.4-0.7,0.9-1.2,1.5-1.7l0.3-0.2l0.3,0.2c0.4,0.3,0.8,0.6,1.2,0.9c0.2-0.1,0.4-0.2,0.6-0.3c0.2-0.1,0.4-0.2,0.6-0.3
				c0-0.6,0-1,0-1.5v-0.4l0.4-0.1c0.5-0.1,1.1-0.2,1.6-0.2c0.2,0,0.4,0,0.7,0h0.4l0.1,0.4c0.1,0.5,0.2,1,0.2,1.5
				c0.4,0.1,0.9,0.2,1.3,0.4c0.4-0.4,0.7-0.7,1.1-1.1l0.3-0.2l0.3,0.2c0.7,0.4,1.2,0.9,1.7,1.5l0.2,0.3l-0.2,0.3
				c-0.3,0.4-0.6,0.8-0.9,1.2c0.1,0.2,0.2,0.4,0.3,0.6s0.2,0.4,0.3,0.6c0.2,0,0.4,0,0.6,0c0.3,0,0.6,0,0.9,0h0.4l0.1,0.4
				c0.2,0.7,0.2,1.5,0.2,2.3v0.4L42.7,36c-0.5,0.1-1,0.2-1.5,0.2c-0.1,0.4-0.2,0.9-0.4,1.3c0.4,0.4,0.7,0.7,1.1,1.1l0.2,0.3
				l-0.2,0.3c-0.4,0.7-0.9,1.2-1.5,1.7l-0.3,0.2l-0.3-0.2c-0.4-0.3-0.8-0.6-1.2-0.9c-0.2,0.1-0.4,0.2-0.6,0.3s-0.4,0.2-0.6,0.3
				c0,0.6,0,1.1,0,1.5v0.4L37,42.6C36.5,42.7,35.9,42.7,35.3,42.7z M35.3,32.7c-0.3,0-0.7,0.1-1,0.2c-0.5,0.3-0.9,0.7-1.1,1.3
				c-0.2,0.6-0.2,1.2,0.1,1.7c0.4,0.8,1.1,1.2,2,1.2c0.3,0,0.7-0.1,1-0.2c1.1-0.5,1.5-1.9,1-3C36.9,33.2,36.2,32.7,35.3,32.7z"/>
		</g>
		<g>
			<path class="st0" d="M35.3,27.5c0.2,0,0.4,0,0.6,0c0.1,0.6,0.2,1.2,0.2,1.8c0.7,0.1,1.3,0.3,1.9,0.6c0.4-0.5,0.8-0.9,1.3-1.3
				c0.6,0.4,1.1,0.9,1.6,1.4c-0.3,0.5-0.7,1-1.1,1.5c0.2,0.3,0.4,0.5,0.5,0.8s0.3,0.6,0.3,0.9c0.3,0,0.6,0,1,0c0.3,0,0.6,0,0.9,0
				c0.2,0.7,0.2,1.4,0.1,2.1c-0.6,0.1-1.2,0.2-1.8,0.2c-0.1,0.7-0.3,1.3-0.6,1.9c0.5,0.4,0.9,0.8,1.3,1.3c-0.4,0.6-0.9,1.1-1.4,1.6
				c-0.5-0.3-1-0.7-1.5-1.1c-0.3,0.2-0.5,0.4-0.8,0.5S37.2,40,36.9,40c0,0.6,0,1.2,0,1.8c-0.5,0.1-1,0.2-1.5,0.2c-0.2,0-0.4,0-0.6,0
				c-0.1-0.6-0.2-1.2-0.2-1.8c-0.7-0.1-1.3-0.3-1.9-0.6c-0.4,0.5-0.8,0.9-1.3,1.3c-0.6-0.4-1.1-0.9-1.6-1.4c0.3-0.5,0.7-1,1.1-1.5
				c-0.2-0.3-0.4-0.5-0.5-0.8s-0.3-0.6-0.3-0.9c-0.3,0-0.6,0-1,0c-0.3,0-0.6,0-0.9,0c-0.2-0.6-0.3-1.3-0.2-2
				c0.6-0.1,1.2-0.2,1.8-0.2c0.1-0.7,0.3-1.3,0.6-1.9c-0.5-0.4-0.9-0.8-1.3-1.3c0.4-0.6,0.9-1.1,1.4-1.6c0.5,0.3,1,0.7,1.5,1.1
				c0.3-0.2,0.5-0.4,0.8-0.5s0.6-0.3,0.9-0.3c0-0.6,0-1.2,0-1.8C34.3,27.6,34.8,27.5,35.3,27.5 M35.3,37.6c0.4,0,0.8-0.1,1.2-0.3
				c1.3-0.7,1.9-2.3,1.2-3.6c-0.5-1-1.4-1.5-2.4-1.5c-0.4,0-0.8,0.1-1.2,0.3c-1.3,0.7-1.9,2.3-1.2,3.6C33.4,37,34.3,37.6,35.3,37.6
				 M35.3,26.5c-0.6,0-1.2,0.1-1.7,0.2l-0.7,0.2l-0.1,0.8c0,0.4,0,0.8,0,1.2c-0.1,0-0.2,0.1-0.3,0.1c-0.1,0.1-0.2,0.1-0.3,0.2
				c-0.3-0.3-0.7-0.5-1-0.7L30.5,28l-0.6,0.5c-0.6,0.5-1.2,1.1-1.6,1.8L27.9,31l0.5,0.6c0.2,0.3,0.5,0.6,0.8,0.9
				c-0.1,0.2-0.2,0.4-0.2,0.7c-0.4,0-0.8,0.1-1.2,0.2H27v0.8c-0.1,0.8,0,1.7,0.2,2.4l0.2,0.7l0.8,0.1c0.3,0,0.6,0,1,0
				c0.1,0,0.2,0,0.2,0c0,0.1,0.1,0.2,0.1,0.3c0.1,0.1,0.1,0.2,0.2,0.3c-0.3,0.3-0.5,0.7-0.7,1l-0.4,0.6l0.5,0.6
				c0.5,0.6,1.1,1.2,1.8,1.6l0.6,0.4l0.6-0.5c0.3-0.2,0.6-0.5,0.9-0.8c0.2,0.1,0.4,0.2,0.7,0.2c0,0.4,0.1,0.8,0.2,1.2l0.2,0.7
				l0.8,0.1c0.2,0,0.5,0,0.7,0c0.6,0,1.2-0.1,1.7-0.2l0.7-0.2l0.1-0.8c0-0.4,0-0.8,0-1.2c0.1,0,0.2-0.1,0.3-0.1
				c0.1-0.1,0.2-0.1,0.3-0.2c0.3,0.3,0.7,0.5,1,0.7l0.6,0.4l0.6-0.5c0.6-0.5,1.2-1.1,1.6-1.8l0.4-0.6L42.4,38
				c-0.2-0.3-0.5-0.6-0.8-0.9c0.1-0.2,0.2-0.4,0.2-0.7c0.4,0,0.8-0.1,1.2-0.2l0.7-0.2l0.1-0.8c0.1-0.8,0-1.7-0.2-2.4l-0.2-0.7
				L42.6,32c-0.3,0-0.6,0-1,0c-0.1,0-0.2,0-0.2,0c0-0.1-0.1-0.2-0.1-0.3c-0.1-0.1-0.1-0.2-0.2-0.3c0.3-0.3,0.5-0.7,0.7-1l0.4-0.6
				l-0.5-0.6c-0.5-0.6-1.1-1.2-1.8-1.6l-0.6-0.4l-0.6,0.5c-0.3,0.2-0.6,0.5-0.9,0.8c-0.2-0.1-0.4-0.2-0.7-0.2c0-0.4-0.1-0.8-0.2-1.2
				l-0.2-0.7L36,26.5C35.8,26.5,35.5,26.5,35.3,26.5L35.3,26.5z M35.3,36.6c-0.6,0-1.2-0.4-1.5-0.9c-0.4-0.8-0.1-1.8,0.8-2.3
				c0.2-0.1,0.5-0.2,0.7-0.2c0.6,0,1.2,0.4,1.5,0.9c0.4,0.8,0.1,1.8-0.8,2.3C35.8,36.5,35.6,36.6,35.3,36.6L35.3,36.6z"/>
		</g>
	</g>
	<g>
		<g>
			<g>
				<g>
					<line class="st1" x1="27.3" y1="18.1" x2="43.7" y2="18.1"/>
				</g>
				<g>
					<line class="st1" x1="27.3" y1="22.8" x2="43.7" y2="22.7"/>
				</g>
			</g>
		</g>
		<g>
			<rect x="12.8" y="18.1" class="st1" width="10.6" height="10.6"/>
			<polygon class="st6" points="16.7,25.9 19.7,28.8 23.4,28.8 23.4,23.7 21.1,21.5 			"/>
			<polygon class="st7" points="14.8,23.9 12.8,26 12.8,28.8 19.7,28.8 			"/>
			<circle class="st6" cx="15.5" cy="21.2" r="1.2"/>
		</g>
	</g>
	<g>
		<g>
			<path class="st8" d="M38.2,34.4c-1.8,0-3.3-1.5-3.3-3.3V16.7c0-1.8,1.5-3.3,3.3-3.3h14.4c1.8,0,3.3,1.5,3.3,3.3v14.4
				c0,1.8-1.5,3.3-3.3,3.3H38.2z"/>
			<path class="st0" d="M52.6,13.8c1.6,0,2.9,1.3,2.9,2.9v14.4c0,1.6-1.3,2.9-2.9,2.9H38.2c-1.6,0-2.9-1.3-2.9-2.9V16.7
				c0-1.6,1.3-2.9,2.9-2.9L52.6,13.8 M52.6,12.9H38.2c-2.1,0-3.8,1.7-3.8,3.8v14.4c0,2.1,1.7,3.8,3.8,3.8h14.4
				c2.1,0,3.8-1.7,3.8-3.8V16.7C56.4,14.6,54.7,12.9,52.6,12.9L52.6,12.9z"/>
		</g>
		<g>
			<rect x="46.4" y="24.7" class="st0" width="1.9" height="1.9"/>
			<rect x="48.4" y="26.6" class="st0" width="1.9" height="1.9"/>
			<rect x="46.4" y="28.5" class="st0" width="1.9" height="1.9"/>
			<rect x="50.3" y="28.5" class="st0" width="1.9" height="1.9"/>
			<rect x="50.3" y="26.6" class="st0" width="1.9" height="1.9"/>
		</g>
		<g>
			<path class="st0" d="M38.8,24.7v4.8c0,0.5,0.4,1,1,1h4.8v-5.7L38.8,24.7L38.8,24.7z M42.6,28.5h-1.9v-1.9h1.9V28.5z"/>
			<path class="st0" d="M46.4,17v5.7h5.7V18c0-0.5-0.4-1-1-1H46.4z M50.3,20.8h-1.9v-1.9h1.9V20.8z"/>
			<path class="st0" d="M38.8,18v4.8h5.7V17h-4.8C39.2,17,38.8,17.4,38.8,18z M42.6,20.8h-1.9v-1.9h1.9V20.8z"/>
		</g>
	</g>
	<g>
		<rect x="26.2" y="43.1" class="st7" width="5.5" height="9.4"/>
		<rect x="31.8" y="43.1" class="st0" width="5.4" height="9.4"/>
		<path class="st1" d="M36.9,52.5H26.6c-0.2,0-0.4-0.2-0.4-0.4v-9.2c0-0.2,0.2-0.4,0.4-0.4h10.3c0.2,0,0.4,0.2,0.4,0.4v9.2
			C37.3,52.3,37.1,52.5,36.9,52.5z"/>
		<g>
			<path class="st9" d="M23.1,45.4h5c0.1,0,0.2,0,0.3-0.1l3.2-2.8h-5.4c-0.1,0-0.2,0-0.3,0.1L23,45.2C22.9,45.3,23,45.4,23.1,45.4z"
				/>
			<path class="st9" d="M40.5,45.4h-5c-0.1,0-0.2,0-0.3-0.1L32,42.5h5.4c0.1,0,0.2,0,0.3,0.1l2.9,2.6C40.6,45.3,40.6,45.4,40.5,45.4
				z"/>
		</g>
	</g>
</g>
</svg>
