<?xml version="1.0" encoding="utf-8"?>
<!-- Generator: Adobe Illustrator 21.0.0, SVG Export Plug-In . SVG Version: 6.00 Build 0)  -->
<svg version="1.1" id="Layer_1" xmlns="http://www.w3.org/2000/svg" xmlns:xlink="http://www.w3.org/1999/xlink" x="0px" y="0px"
	 viewBox="0 0 40 40" style="enable-background:new 0 0 40 40;" xml:space="preserve">
<style type="text/css">
	.st0{opacity:0.1;fill:#28387C;}
	.st1{fill:none;stroke:#28387C;stroke-width:0.9288;stroke-miterlimit:10;}
	.st2{fill:none;stroke:#28387C;stroke-width:1.4173;stroke-miterlimit:10;}
	.st3{fill:none;stroke:#28387C;stroke-width:1.1339;stroke-miterlimit:10;}
	.st4{fill:#28387C;}
</style>
<g>
	<circle class="st0" cx="17.2" cy="20" r="10.4"/>
	<g>
		<circle class="st1" cx="20" cy="20" r="10.6"/>
		<circle class="st2" cx="20" cy="20" r="10.6"/>
		<g>
			<path class="st3" d="M22.7,32.8c-0.9,0.2-1.7,0.3-2.6,0.3c-4.1,0-7.7-1.8-10.1-4.7"/>
			<path class="st3" d="M26.6,31.4c-0.6,0.3-1.1,0.6-1.8,0.9"/>
			<path class="st3" d="M31.1,13.1c1.3,2,2,4.4,2,6.9c0,4.3-2,8.1-5.2,10.5"/>
			<path class="st3" d="M7.9,25.1c-0.7-1.6-1-3.3-1-5.1c0-7.2,5.8-13.1,13.1-13.2c0.9,0,1.8,0.1,2.6,0.3c2.7,0.5,5.1,1.9,6.9,3.8"/>
		</g>
		<g>
			<g>
				<path class="st4" d="M20.3,24.5h-3.9v-6.8h1.4h5.9v4.1c0.2-0.1,0.5-0.1,0.7-0.1s0.5,0,0.7,0.1v-4.1h0.9v-2.7
					c0-0.6-0.5-1.2-1.2-1.2h-3.1h-5h-0.3h-0.2H16v0c-0.6,0.1-1.1,0.5-1.1,1.1V22h-1.1v2.7c0,0.6,0.5,1.2,1.2,1.2h1.1h4.2h2.1
					c-0.4-0.4-0.6-0.9-0.6-1.4H20.3z M24.5,15.2v1h-6.7v-1h3.9H24.5z"/>
				<path class="st4" d="M25.1,22.3c-0.2-0.1-0.5-0.1-0.7-0.1s-0.5,0.1-0.7,0.1c-0.8,0.3-1.3,1-1.3,1.9c0,0.1,0,0.2,0,0.3
					c0.1,0.6,0.4,1.1,0.9,1.4c0.3,0.2,0.7,0.3,1.1,0.3c1.1,0,2-0.9,2-2C26.4,23.3,25.8,22.6,25.1,22.3z M25.5,25.1L25,24.9l-1-0.5
					V23h0.6v1l0.4,0.2l0.7,0.3L25.5,25.1z"/>
				<rect x="18.1" y="19.3" class="st4" width="3.8" height="1.1"/>
				<rect x="18.1" y="21.8" class="st4" width="3.8" height="1.1"/>
			</g>
		</g>
	</g>
</g>
</svg>
