<?xml version="1.0" encoding="utf-8"?>
<!-- Generator: Adobe Illustrator 21.0.0, SVG Export Plug-In . SVG Version: 6.00 Build 0)  -->
<svg version="1.1" id="Layer_1" xmlns="http://www.w3.org/2000/svg" xmlns:xlink="http://www.w3.org/1999/xlink" x="0px" y="0px"
	 viewBox="0 0 40 40" style="enable-background:new 0 0 40 40;" xml:space="preserve">
<style type="text/css">
	.st0{opacity:0.6;fill:#CDD1E2;}
	.st1{fill:#CDD1E2;}
	.st2{fill:none;stroke:#CDD1E2;stroke-width:1.4343;stroke-miterlimit:10;}
	.st3{fill:#FFFFFF;stroke:#8E8BB2;stroke-width:1.4343;stroke-miterlimit:10;}
	.st4{fill:#E3E8F6;}
	.st5{fill:none;stroke:#8E8BB2;stroke-width:1.4343;stroke-miterlimit:10;}
	.st6{fill:#E3E8F6;stroke:#8E8BB2;stroke-width:1.4343;stroke-miterlimit:10;}
</style>
<g>
	<g>
		<path class="st0" d="M14.2,30.4l8.8,8.8h12.5c2.1,0,3.8-1.7,3.8-3.8V17.2l-5.9-5.9L14.2,30.4z"/>
		<path class="st1" d="M4.6,39.2h18.3L5.9,22.1l-5.1,5.1v8.2C0.8,37.5,2.5,39.2,4.6,39.2z"/>
		<circle class="st0" cx="8.9" cy="10.1" r="4.1"/>
		<path class="st2" d="M35.4,0.8H4.6c-2.1,0-3.8,1.7-3.8,3.8v30.8c0,2.1,1.7,3.8,3.8,3.8h30.8c2.1,0,3.8-1.7,3.8-3.8V4.6
			C39.2,2.5,37.5,0.8,35.4,0.8z"/>
	</g>
	<circle class="st3" cx="20" cy="20" r="11.1"/>
	<g>
		<g>
			<g>
				<path class="st4" d="M22.3,16L22.3,16c-0.1-0.6-0.7-1-1.3-1h-2.1c-0.6,0-1.1,0.4-1.3,1v0c-0.1,0.6-0.7,1-1.3,1h-1.2
					c-0.7,0-1.3,0.6-1.3,1.3v5.3c0,0.7,0.6,1.3,1.3,1.3h9.6c0.7,0,1.3-0.6,1.3-1.3v-5.3c0-0.7-0.6-1.3-1.3-1.3h-1.2
					C23,17.1,22.5,16.6,22.3,16z"/>
				<path class="st5" d="M22.3,16L22.3,16c-0.1-0.6-0.7-1-1.3-1h-2.1c-0.6,0-1.1,0.4-1.3,1v0c-0.1,0.6-0.7,1-1.3,1h-1.2
					c-0.7,0-1.3,0.6-1.3,1.3v5.3c0,0.7,0.6,1.3,1.3,1.3h9.6c0.7,0,1.3-0.6,1.3-1.3v-5.3c0-0.7-0.6-1.3-1.3-1.3h-1.2
					C23,17.1,22.5,16.6,22.3,16z"/>
			</g>
			<circle class="st6" cx="20" cy="20.7" r="2.3"/>
		</g>
	</g>
</g>
</svg>
