<?xml version="1.0" encoding="utf-8"?>
<!-- Generator: Adobe Illustrator 21.0.0, SVG Export Plug-In . SVG Version: 6.00 Build 0)  -->
<svg version="1.1" id="Layer_1" xmlns="http://www.w3.org/2000/svg" xmlns:xlink="http://www.w3.org/1999/xlink" x="0px" y="0px"
	 viewBox="0 0 36 36" style="enable-background:new 0 0 36 36;" xml:space="preserve">
<style type="text/css">
	.st0{fill:#FFFFFF;stroke:#CDD1E2;stroke-width:1.9124;stroke-miterlimit:10;}
	.st1{fill:#E3E8F6;}
	.st2{fill:none;stroke:#8E8BB2;stroke-width:1.9124;stroke-miterlimit:10;}
</style>
<g>
	<g>
		<g>
			<circle class="st0" cx="18" cy="18" r="15.9"/>
		</g>
	</g>
	<path class="st1" d="M24.4,9.2L24.4,9.2c-0.2-0.9-1-1.5-1.9-1.5h-3.1c-0.9,0-1.7,0.6-1.9,1.5v0c-0.2,0.9-1,1.5-1.9,1.5h-1.8
		c-1.1,0-1.9,0.9-1.9,1.9v7.8c0,1.1,0.9,1.9,1.9,1.9h14.1c1.1,0,1.9-0.9,1.9-1.9v-7.8c0-1.1-0.9-1.9-1.9-1.9h-1.8
		C25.4,10.7,24.6,10.1,24.4,9.2z"/>
	<g>
		<path class="st2" d="M21.4,11.2L21.4,11.2c-0.2-0.9-1-1.5-1.9-1.5h-3.1c-0.9,0-1.7,0.6-1.9,1.5l0,0c-0.2,0.9-1,1.5-1.9,1.5h-1.8
			c-1.1,0-1.9,0.9-1.9,1.9v7.8c0,1.1,0.9,1.9,1.9,1.9h14.1c1.1,0,1.9-0.9,1.9-1.9v-7.8c0-1.1-0.9-1.9-1.9-1.9h-1.8
			C22.4,12.7,21.6,12.1,21.4,11.2z"/>
		<circle class="st2" cx="18" cy="18" r="3.4"/>
	</g>
</g>
</svg>
