<?xml version="1.0" encoding="utf-8"?>
<!-- Generator: Adobe Illustrator 21.0.0, SVG Export Plug-In . SVG Version: 6.00 Build 0)  -->
<svg version="1.1" id="Layer_1" xmlns="http://www.w3.org/2000/svg" xmlns:xlink="http://www.w3.org/1999/xlink" x="0px" y="0px"
	 viewBox="0 0 24 24" style="enable-background:new 0 0 24 24;" xml:space="preserve">
<style type="text/css">
	.st0{fill:none;stroke:#8E8BB2;stroke-width:1.4343;stroke-miterlimit:10;}
	.st1{fill:#E3E8F6;}
	.st2{fill:#E3E8F6;stroke:#8E8BB2;stroke-width:1.4343;stroke-miterlimit:10;}
</style>
<g>
	<circle class="st0" cx="12" cy="12" r="11.1"/>
	<g>
		<g>
			<g>
				<path class="st1" d="M14.3,7.9L14.3,7.9c-0.1-0.6-0.7-1-1.3-1h-2.1c-0.6,0-1.1,0.4-1.3,1l0,0c-0.1,0.6-0.7,1-1.3,1H7.2
					c-0.7,0-1.3,0.6-1.3,1.3v5.3c0,0.7,0.6,1.3,1.3,1.3h9.6c0.7,0,1.3-0.6,1.3-1.3v-5.3c0-0.7-0.6-1.3-1.3-1.3h-1.2
					C15,8.9,14.5,8.5,14.3,7.9z"/>
				<path class="st0" d="M14.3,7.9L14.3,7.9c-0.1-0.6-0.7-1-1.3-1h-2.1c-0.6,0-1.1,0.4-1.3,1l0,0c-0.1,0.6-0.7,1-1.3,1H7.2
					c-0.7,0-1.3,0.6-1.3,1.3v5.3c0,0.7,0.6,1.3,1.3,1.3h9.6c0.7,0,1.3-0.6,1.3-1.3v-5.3c0-0.7-0.6-1.3-1.3-1.3h-1.2
					C15,8.9,14.5,8.5,14.3,7.9z"/>
			</g>
			<circle class="st2" cx="12" cy="12.5" r="2.3"/>
		</g>
	</g>
</g>
</svg>
