<?xml version="1.0" encoding="utf-8"?>
<!-- Generator: Adobe Illustrator 21.0.0, SVG Export Plug-In . SVG Version: 6.00 Build 0)  -->
<svg version="1.1" id="Layer_1" xmlns="http://www.w3.org/2000/svg" xmlns:xlink="http://www.w3.org/1999/xlink" x="0px" y="0px"
	 viewBox="0 0 16 16" style="enable-background:new 0 0 16 16;" xml:space="preserve">
<style type="text/css">
	.st0{fill:none;stroke:#28387C;stroke-width:0.4133;stroke-miterlimit:10;}
	.st1{fill:none;stroke:#28387C;stroke-width:0.6307;stroke-miterlimit:10;}
	.st2{fill:none;stroke:#28387C;stroke-width:0.5045;stroke-miterlimit:10;}
	.st3{fill:none;stroke:#28387C;stroke-width:1.7008;stroke-miterlimit:10;}
</style>
<g>
	<circle class="st0" cx="8" cy="8" r="4.7"/>
	<circle class="st1" cx="8" cy="8" r="4.7"/>
	<g>
		<path class="st2" d="M9.2,13.7c-0.4,0.1-0.8,0.1-1.2,0.1c-1.8,0-3.4-0.8-4.5-2.1"/>
		<path class="st2" d="M10.9,13.1c-0.2,0.1-0.5,0.3-0.8,0.4"/>
		<path class="st2" d="M13,4.9c0.6,0.9,0.9,1.9,0.9,3.1c0,1.9-0.9,3.6-2.3,4.7"/>
		<path class="st2" d="M2.6,10.3C2.3,9.6,2.2,8.8,2.2,8c0-3.2,2.6-5.8,5.8-5.9c0.4,0,0.8,0,1.2,0.1c1.2,0.2,2.3,0.8,3.1,1.7"/>
	</g>
	<g>
		<line class="st3" x1="8" y1="7.8" x2="8" y2="10.9"/>
		<line class="st3" x1="8" y1="5.1" x2="8" y2="6.6"/>
	</g>
</g>
</svg>
