<?xml version="1.0" encoding="utf-8"?>
<!-- Generator: Adobe Illustrator 21.0.0, SVG Export Plug-In . SVG Version: 6.00 Build 0)  -->
<svg version="1.1" id="Layer_1" xmlns="http://www.w3.org/2000/svg" xmlns:xlink="http://www.w3.org/1999/xlink" x="0px" y="0px"
	 viewBox="0 0 24 24" style="enable-background:new 0 0 24 24;" xml:space="preserve">
<style type="text/css">
	.st0{fill:#E3E8F6;}
	.st1{fill:none;stroke:#8E8BB2;stroke-width:1.9124;stroke-miterlimit:10;}
</style>
<g>
	<path class="st0" d="M14.6,1.9c-5,0-9.1,4.1-9.1,9.1c0,2,0.7,3.9,1.8,5.4l-1.1,3.6l3.9-1.2c1.3,0.7,2.8,1.2,4.4,1.2
		c5,0,9.1-4.1,9.1-9.1S19.6,1.9,14.6,1.9z"/>
	<path class="st1" d="M10.6,3.9c-5,0-9.1,4.1-9.1,9.1c0,2,0.7,3.9,1.8,5.4l-1.1,3.6l3.9-1.2c1.3,0.7,2.8,1.2,4.4,1.2
		c5,0,9.1-4.1,9.1-9.1S15.6,3.9,10.6,3.9z"/>
	<g>
		<polyline class="st1" points="8.8,11.6 11.2,11.6 11.2,18.2 		"/>
		<line class="st1" x1="11.2" y1="9.3" x2="11.2" y2="7.4"/>
	</g>
</g>
</svg>
