<?xml version="1.0" encoding="utf-8"?>
<!-- Generator: Adobe Illustrator 21.0.0, SVG Export Plug-In . SVG Version: 6.00 Build 0)  -->
<svg version="1.1" id="Layer_1" xmlns="http://www.w3.org/2000/svg" xmlns:xlink="http://www.w3.org/1999/xlink" x="0px" y="0px"
	 viewBox="0 0 64 64" style="enable-background:new 0 0 64 64;" xml:space="preserve">
<style type="text/css">
	.st0{fill:#E3E8F6;}
	.st1{fill:none;stroke:#8E8BB2;stroke-width:1.4343;stroke-miterlimit:10;}
	.st2{fill:none;stroke:#8E8BB2;stroke-width:1.4343;stroke-miterlimit:10;stroke-dasharray:1.5086,1.5086;}
	.st3{fill:none;stroke:#8E8BB2;stroke-width:1.4343;stroke-miterlimit:10;stroke-dasharray:1.3139,1.3139;}
	.st4{fill:#FFFFFF;}
	.st5{fill:none;stroke:#CDD1E2;stroke-width:1.4343;stroke-miterlimit:10;}
	.st6{opacity:0.6;fill:#CDD1E2;enable-background:new    ;}
	.st7{fill:#CDD1E2;}
	.st8{fill:#28387C;stroke:#28387C;stroke-width:1.4343;stroke-miterlimit:10;}
	.st9{fill:#28387C;}
	.st10{fill:none;stroke:#FFFFFF;stroke-width:2.4861;stroke-miterlimit:10;}
	.st11{fill:none;stroke:#28387C;stroke-width:1.4343;stroke-miterlimit:10;}
</style>
<g>
	<path class="st0" d="M36.7,52h-24c-2.1,0-3.8-1.7-3.8-3.8V26.4c0-2.1,1.7-3.8,3.8-3.8h24c2.1,0,3.8,1.7,3.8,3.8v21.8
		C40.5,50.3,38.8,52,36.7,52z"/>
	<g>
		<g>
			<line class="st1" x1="44.2" y1="31.2" x2="44.2" y2="31.9"/>
			<line class="st2" x1="44.2" y1="33.4" x2="44.2" y2="47.7"/>
			<polyline class="st1" points="44.2,48.5 44.2,49.2 43.5,49.2 			"/>
			<line class="st3" x1="42.2" y1="49.2" x2="29.7" y2="49.2"/>
			<line class="st1" x1="29" y1="49.2" x2="28.3" y2="49.2"/>
		</g>
	</g>
	<g>
		<path class="st4" d="M51.4,43.7H19.8c-2.1,0-3.8-1.7-3.8-3.8V18.7c0-2.1,1.7-3.8,3.8-3.8h31.6c2.1,0,3.8,1.7,3.8,3.8v21.2
			C55.2,42,53.5,43.7,51.4,43.7z"/>
		<path class="st5" d="M51.4,43.7H19.8c-2.1,0-3.8-1.7-3.8-3.8V18.7c0-2.1,1.7-3.8,3.8-3.8h31.6c2.1,0,3.8,1.7,3.8,3.8v21.2
			C55.2,42,53.5,43.7,51.4,43.7z"/>
	</g>
	<g>
		<g>
			<g>
				<g>
					<line class="st5" x1="33.8" y1="34.4" x2="50.3" y2="34.4"/>
				</g>
				<g>
					<line class="st5" x1="33.8" y1="39.1" x2="50.3" y2="39"/>
				</g>
			</g>
		</g>
		<g>
			<rect x="39" y="19.5" class="st5" width="10.6" height="10.6"/>
			<polygon class="st6" points="43,27.2 45.9,30.1 49.6,30.1 49.6,25 47.4,22.8 			"/>
			<polygon class="st7" points="41.1,25.3 39,27.3 39,30.1 45.9,30.1 			"/>
			<circle class="st6" cx="41.7" cy="22.5" r="1.2"/>
		</g>
	</g>
	<rect x="26" y="36.7" class="st4" width="8.4" height="14.5"/>
	<g>
		<rect x="17.5" y="38.6" class="st7" width="8.5" height="14.5"/>
		<path class="st1" d="M33.9,53.1H18.1c-0.3,0-0.6-0.3-0.6-0.6V38.3c0-0.3,0.3-0.6,0.6-0.6h15.8c0.3,0,0.6,0.3,0.6,0.6v14.2
			C34.5,52.8,34.3,53.1,33.9,53.1z"/>
		<g>
			<path class="st8" d="M12.7,42.2h7.7c0.1,0,0.3-0.1,0.4-0.2l4.9-4.4h-8.3c-0.1,0-0.3,0.1-0.4,0.2l-4.5,4
				C12.4,42,12.5,42.2,12.7,42.2z"/>
			<path class="st8" d="M39.3,42.2h-7.7c-0.1,0-0.3-0.1-0.4-0.2l-4.9-4.4h8.3c0.1,0,0.3,0.1,0.4,0.2l4.5,4
				C39.6,42,39.5,42.2,39.3,42.2z"/>
		</g>
	</g>
	<g>
		<g>
			<g>
				<circle class="st9" cx="25.7" cy="31.2" r="7.4"/>
				<path class="st4" d="M25.7,24.2c3.8,0,6.9,3.1,6.9,6.9S29.5,38,25.7,38s-6.9-3.1-6.9-6.9S21.9,24.2,25.7,24.2 M25.7,23.3
					c-4.3,0-7.9,3.5-7.9,7.9s3.5,7.9,7.9,7.9s7.9-3.5,7.9-7.9S30.1,23.3,25.7,23.3L25.7,23.3z"/>
			</g>
			<g>
				<line class="st10" x1="22" y1="31.2" x2="29.4" y2="31.2"/>
				<line class="st10" x1="25.7" y1="27.5" x2="25.7" y2="34.8"/>
			</g>
		</g>
	</g>
	<g>
		<line class="st11" x1="25.7" y1="21.7" x2="25.7" y2="14"/>
		<circle class="st11" cx="25.7" cy="12.5" r="1.6"/>
		<g>
			<g>
				<g>
					<polyline class="st11" points="29.2,26.9 29.2,22.1 32.4,18.9 					"/>
					<circle class="st11" cx="33.2" cy="18.1" r="1.6"/>
				</g>
			</g>
			<g>
				<g>
					<polyline class="st11" points="22.2,26.9 22.2,22.1 19,18.9 					"/>
					<circle class="st11" cx="18.2" cy="18.1" r="1.6"/>
				</g>
			</g>
		</g>
	</g>
</g>
</svg>
