<?xml version="1.0" encoding="utf-8"?>
<!-- Generator: Adobe Illustrator 21.0.0, SVG Export Plug-In . SVG Version: 6.00 Build 0)  -->
<svg version="1.1" id="Layer_1" xmlns="http://www.w3.org/2000/svg" xmlns:xlink="http://www.w3.org/1999/xlink" x="0px" y="0px"
	 viewBox="0 0 36 36" style="enable-background:new 0 0 36 36;" xml:space="preserve">
<style type="text/css">
	.st0{fill:#FFFFFF;stroke:#CDD1E2;stroke-width:1.9124;stroke-miterlimit:10;}
	.st1{fill:#E3E8F6;}
	.st2{fill:none;stroke:#8E8BB2;stroke-width:1.9124;stroke-miterlimit:10;}
	.st3{fill:none;stroke:#8E8BB2;stroke-width:2.5;stroke-miterlimit:10;}
	.st4{fill:#8E8BB2;}
</style>
<g>
	<g>
		<g>
			<g>
				<circle class="st0" cx="18" cy="18" r="15.9"/>
			</g>
		</g>
	</g>
	<g>
		<g>
			<path class="st1" d="M11.5,11.4v7.9c0,1.1,0.9,1.9,1.9,1.9h14.1c1.1,0,1.9-0.9,1.9-1.9v-7.9c0-1.1-0.9-1.9-1.9-1.9H13.4
				C12.3,9.5,11.5,10.3,11.5,11.4z"/>
		</g>
	</g>
	<g>
		<g>
			<path class="st2" d="M9,14V22c0,1.1,0.9,1.9,1.9,1.9h14.1c1.1,0,1.9-0.9,1.9-1.9V14c0-1.1-0.9-1.9-1.9-1.9H10.9
				C9.9,12.1,9,13,9,14z"/>
		</g>
	</g>
	<line class="st3" x1="9" y1="16.5" x2="27" y2="16.5"/>
	<circle class="st4" cx="12.8" cy="20.3" r="1.6"/>
	<circle class="st4" cx="15.3" cy="20.3" r="1.6"/>
</g>
</svg>
