<?xml version="1.0" encoding="utf-8"?>
<!-- Generator: Adobe Illustrator 21.0.0, SVG Export Plug-In . SVG Version: 6.00 Build 0)  -->
<svg version="1.1" id="Layer_1" xmlns="http://www.w3.org/2000/svg" xmlns:xlink="http://www.w3.org/1999/xlink" x="0px" y="0px"
	 viewBox="0 0 40 40" style="enable-background:new 0 0 40 40;" xml:space="preserve">
<style type="text/css">
	.st0{opacity:0.1;fill:#28387C;}
	.st1{fill:none;stroke:#28387C;stroke-width:0.9288;stroke-miterlimit:10;}
	.st2{fill:none;stroke:#28387C;stroke-width:1.4173;stroke-miterlimit:10;}
	.st3{fill:none;stroke:#28387C;stroke-width:1.1339;stroke-miterlimit:10;}
	.st4{fill:none;stroke:#28387C;stroke-width:1.7008;stroke-linecap:round;stroke-miterlimit:10;}
	.st5{fill:#28387C;}
</style>
<g>
	<circle class="st0" cx="17.2" cy="20" r="10.4"/>
	<g>
		<circle class="st1" cx="20" cy="20" r="10.6"/>
		<circle class="st2" cx="20" cy="20" r="10.6"/>
		<g>
			<path class="st3" d="M22.7,32.8c-0.9,0.2-1.7,0.3-2.6,0.3c-4.1,0-7.7-1.8-10.1-4.7"/>
			<path class="st3" d="M26.6,31.4c-0.6,0.3-1.1,0.6-1.8,0.9"/>
			<path class="st3" d="M31.1,13.1c1.3,2,2,4.4,2,6.9c0,4.3-2,8.1-5.2,10.5"/>
			<path class="st3" d="M7.9,25.1c-0.7-1.6-1-3.3-1-5.1c0-7.2,5.8-13.1,13.1-13.2c0.9,0,1.8,0.1,2.6,0.3c2.7,0.5,5.1,1.9,6.9,3.8"/>
		</g>
		<g>
			<g>
				<path class="st4" d="M15.4,19.7c0-0.5,0.1-0.9,0.3-1.4c0.9-2.5,3.7-3.8,6.2-2.8c0.7,0.3,1.4,0.7,1.9,1.3"/>
				<path class="st4" d="M25.1,20c0,0.3,0,0.6-0.1,0.9c-0.1,0.3-0.1,0.6-0.2,0.9c-0.9,2.5-3.7,3.8-6.2,2.8c-0.8-0.3-1.5-0.8-2-1.5"
					/>
			</g>
			<polygon class="st5" points="24.9,18.3 21.9,17.7 25.4,15.3 			"/>
			<polygon class="st5" points="15.5,21.4 18.4,22 14.9,24.4 			"/>
		</g>
	</g>
</g>
</svg>
