<?xml version="1.0" encoding="utf-8"?>
<!-- Generator: Adobe Illustrator 21.0.0, SVG Export Plug-In . SVG Version: 6.00 Build 0)  -->
<svg version="1.1" id="Layer_1" xmlns="http://www.w3.org/2000/svg" xmlns:xlink="http://www.w3.org/1999/xlink" x="0px" y="0px"
	 viewBox="0 0 120 28" style="enable-background:new 0 0 120 28;" xml:space="preserve">
<style type="text/css">
	.st0{fill:none;stroke:#28387C;stroke-width:1.7008;stroke-miterlimit:10;}
	.st1{fill:#28387C;}
	.st2{fill:none;stroke:#28387C;stroke-width:1.1339;stroke-miterlimit:10;}
	.st3{fill:#FFFFFF;stroke:#28387C;stroke-width:1.1339;stroke-miterlimit:10;}
	.st4{fill:none;stroke:#28387C;stroke-width:1.4173;stroke-miterlimit:10;}
</style>
<g>
	<g>
		<circle class="st0" cx="103.7" cy="12.9" r="4.7"/>
		<path class="st1" d="M108.3,14.5c-0.5,1.2-1.5,2.2-2.6,2.8l3.3,3.3l2.7-2.7L108.3,14.5z"/>
	</g>
	<path class="st2" d="M26.1,25.5H7.5c-2.8,0-5-2.2-5-5v-13c0-2.8,2.2-5,5-5h39.1"/>
	<line class="st2" x1="84.3" y1="25.5" x2="32.1" y2="25.5"/>
	<line class="st3" x1="92" y1="25.5" x2="88.3" y2="25.5"/>
	<path class="st2" d="M51.3,2.5h24.8h10.7h25.8c2.8,0,5,2.2,5,5v13c0,2.8-2.2,5-5,5h-12.4"/>
	<path class="st4" d="M110.5,22H8.6c-1.7,0-3-1.3-3-3V9c0-1.7,1.3-3,3-3h101.9c1.7,0,3,1.3,3,3V19C113.5,20.7,112.2,22,110.5,22z"/>
</g>
</svg>
