<?xml version="1.0" encoding="utf-8"?>
<!-- Generator: Adobe Illustrator 21.0.0, SVG Export Plug-In . SVG Version: 6.00 Build 0)  -->
<svg version="1.1" id="Layer_1" xmlns="http://www.w3.org/2000/svg" xmlns:xlink="http://www.w3.org/1999/xlink" x="0px" y="0px"
	 viewBox="0 0 64 64" style="enable-background:new 0 0 64 64;" xml:space="preserve">
<style type="text/css">
	.st0{fill:#E3E8F6;}
	.st1{fill:none;stroke:#8E8BB2;stroke-width:1.4343;stroke-miterlimit:10;}
	.st2{fill:none;stroke:#8E8BB2;stroke-width:1.4343;stroke-miterlimit:10;stroke-dasharray:1.4646,1.4646;}
	.st3{fill:#FFFFFF;stroke:#8E8BB2;stroke-width:1.4343;stroke-miterlimit:10;}
	.st4{fill:#8E8BB2;}
	.st5{fill:#FFFFFF;}
	.st6{fill:#E3E8F6;stroke:#28387C;stroke-width:1.4343;stroke-miterlimit:10;}
	.st7{fill:#28387C;}
	.st8{fill:#FFFFFF;stroke:#28387C;stroke-width:1.4343;stroke-miterlimit:10;}
	.st9{fill:#F9E0B4;}
	.st10{fill:#05A54E;}
	.st11{opacity:0.45;fill:#28387C;enable-background:new    ;}
	.st12{fill:none;stroke:#28387C;stroke-width:1.2374;stroke-miterlimit:10;}
	.st13{fill:none;stroke:#28387C;stroke-width:0.9281;stroke-miterlimit:10;}
	.st14{fill:#FFFFFF;stroke:#28387C;stroke-width:0.9281;stroke-miterlimit:10;}
	.st15{fill:none;stroke:#8E8BB2;stroke-width:0.9281;stroke-miterlimit:10;}
	.st16{fill:#FFFFFF;stroke:#8E8BB2;stroke-width:0.9281;stroke-miterlimit:10;}
</style>
<g>
	<path class="st0" d="M15.7,45V32c0-1.5,1.2-2.6,2.6-2.6h20.9c1.5,0,2.6,1.2,2.6,2.6v13c0,1.5-1.2,2.6-2.6,2.6H18.3
		C16.8,47.6,15.7,46.4,15.7,45z"/>
	<g>
		<g>
			<g>
				<line class="st1" x1="42.3" y1="22.9" x2="42.3" y2="23.6"/>
				<line class="st2" x1="42.3" y1="25.1" x2="42.3" y2="42"/>
				<line class="st1" x1="42.3" y1="42.7" x2="42.3" y2="43.4"/>
			</g>
		</g>
		<g>
			<path class="st3" d="M51.8,49.1H37.6c-1.3,0-2.4-1.1-2.4-2.4v-8.8c0-1.3,1.1-2.4,2.4-2.4h14.2V49.1z"/>
			<path class="st4" d="M39.5,44.6h-5.6v-4.5h5.6c1.2,0,2.2,1,2.2,2.2l0,0C41.8,43.6,40.8,44.6,39.5,44.6z"/>
			<circle class="st5" cx="39.2" cy="42.3" r="0.9"/>
		</g>
		<g>
			<g>
				<g>
					<circle class="st3" cx="50.3" cy="35.2" r="5.6"/>
				</g>
			</g>
			<g>
				<g>
					<g>
						<circle class="st4" cx="50.3" cy="34.7" r="1.7"/>
					</g>
					<g>
						<path class="st4" d="M53.6,39.4c-0.5-1.3-1.8-2.2-3.3-2.2s-2.7,0.9-3.3,2.2c-0.1,0.3-0.1,0.7,0.2,0.9c1.8,1.1,4,1.1,6.1,0
							C53.7,40.2,53.7,39.7,53.6,39.4z"/>
					</g>
				</g>
			</g>
		</g>
		<g>
			<path class="st6" d="M19.3,39.5h-5.5V25.9H28c1.3,0,2.4,1.1,2.4,2.4v8.8c0,1.3-1.1,2.4-2.4,2.4h-4.1"/>
			<path class="st7" d="M26,30.4h5.6v4.5H26c-1.2,0-2.2-1-2.2-2.2l0,0C23.7,31.4,24.7,30.4,26,30.4z"/>
			<circle class="st5" cx="26.3" cy="32.7" r="0.9"/>
		</g>
		<g>
			<circle class="st8" cx="15.6" cy="24.2" r="7.6"/>
			<g>
				<path class="st7" d="M15.7,25.5c-0.8,0-1.8,0.1-2.3-0.5c-1.4,0.6-2.5,1.7-3.1,3.2c-0.2,0.5-0.1,1.1,0.4,1.5l0,0
					c2.9,2.4,7.1,2.4,10,0l0,0c0.4-0.4,0.6-1,0.4-1.5c-0.6-1.4-1.7-2.6-3.1-3.2C17.6,25.5,16.4,25.5,15.7,25.5z"/>
				<path class="st9" d="M17.1,24.8V24c0.3-0.7,0.6-2,0.6-2.5c0-1.2-0.8-2-2-2s-2,0.7-2,2c0,0.6,0.2,2,0.6,2.6v0.7
					c-0.3,0.1-0.6,0.1-0.8,0.3v1.2c0,0.7,0.6,1.3,1.3,1.3h1.9c0.7,0,1.3-0.6,1.3-1.3v-1.2C17.6,25,17.4,24.9,17.1,24.8z"/>
				<g>
					<path class="st7" d="M17.8,19.4c-0.4-0.4-1.7-0.6-2.3-0.5c-0.3,0-1.3,0.8-1.3,0.8s-0.6,0.3-0.8,0.5c-0.3,0.3-0.3,0.6-0.2,1
						c0.1,0.3,0.3,1.2,0.5,1.2c0.1,0,0-0.7,0.2-0.8c0.2-0.1,0.7-0.5,0.7-0.8c0-0.1-0.2-0.5-0.2-0.5v-0.1h0.1l0.3,0.6
						c0.3,0.3,1.3,0.8,2.6,1c0.3,0,1.2-0.7,1.2-0.7S18.1,19.8,17.8,19.4z"/>
				</g>
			</g>
			<g>
				<path class="st9" d="M14,22h-0.4c-0.2,0-0.4,0.2-0.4,0.4v0.4c0,0.2,0.2,0.4,0.4,0.4H14c0.2,0,0.4-0.2,0.4-0.4v-0.4
					C14.4,22.2,14.2,22,14,22z"/>
				<path class="st9" d="M17.6,22h-0.4c-0.2,0-0.4,0.2-0.4,0.4v0.4c0,0.2,0.2,0.4,0.4,0.4h0.4c0.2,0,0.4-0.2,0.4-0.4v-0.4
					C18,22.2,17.8,22,17.6,22z"/>
			</g>
			<g>
				<path class="st7" d="M17.4,21.6c0,0-0.1,0.7-0.1,0.9c0,0.2,0.2,0.1,0.2-0.1s0.2-1.1,0.2-1.1L17.4,21.6z"/>
				<path class="st7" d="M13.5,21.4c0,0,0.2,0.8,0.2,1.1c0,0.2,0.2,0.3,0.2,0.1c0-0.2-0.1-0.9-0.1-0.9L13.5,21.4z"/>
			</g>
		</g>
		<polygon class="st5" points="20.6,14.5 25.6,19.5 20.6,24.5 		"/>
		<polygon class="st5" points="23.9,14.5 28.9,19.5 23.9,24.5 		"/>
		<g>
			<g>
				<g>
					<polygon class="st10" points="24.2,19.5 21.5,22.2 21.5,16.8 					"/>
				</g>
				<g>
					<polygon class="st10" points="27.6,19.5 24.9,22.2 24.9,16.8 					"/>
				</g>
			</g>
		</g>
		<g>
			<path class="st5" d="M45.6,25.4h-6.7c-1.4,0-2.5-1.1-2.5-2.5v-6.8c0-1.4,1.1-2.5,2.5-2.5h6.7c1.4,0,2.5,1.1,2.5,2.5v6.8
				C48.1,24.3,46.9,25.4,45.6,25.4z"/>
			<path class="st11" d="M44.5,23.5H40c-0.9,0-1.7-0.8-1.7-1.7v-4.7c0-0.9,0.8-1.7,1.7-1.7h4.6c0.9,0,1.7,0.8,1.7,1.7v4.7
				C46.3,22.8,45.5,23.5,44.5,23.5z"/>
			<path class="st12" d="M36.5,17.2v-1.1c0-1.4,1.1-2.5,2.5-2.5h6.7c1.4,0,2.5,1.1,2.5,2.5v1.1"/>
			<path class="st12" d="M48.1,21.8v1.1c0,1.4-1.1,2.5-2.5,2.5h-6.7c-1.4,0-2.5-1.1-2.5-2.5v-1.1"/>
			<g>
				<g>
					<g>
						<line class="st13" x1="36.7" y1="19.5" x2="30.5" y2="19.5"/>
						<circle class="st14" cx="30.8" cy="19.5" r="1"/>
						<g>
							<g>
								<polyline class="st13" points="40.1,21.8 35.7,21.8 33.7,23.9 								"/>
								<circle class="st13" cx="33.2" cy="24.4" r="1"/>
							</g>
							<g>
								<polyline class="st13" points="40.1,17.2 35.7,17.2 33.7,15.1 								"/>
								<circle class="st13" cx="33.2" cy="14.6" r="1"/>
							</g>
						</g>
					</g>
				</g>
				<g>
					<g>
						<line class="st13" x1="47.8" y1="19.5" x2="52.8" y2="19.5"/>
						<circle class="st14" cx="53.8" cy="19.5" r="1"/>
						<g>
							<g>
								<polyline class="st13" points="44.4,21.8 48.8,21.8 50.9,23.9 								"/>
								<circle class="st13" cx="51.4" cy="24.4" r="1"/>
							</g>
							<g>
								<polyline class="st13" points="44.4,17.2 48.8,17.2 50.9,15.1 								"/>
								<circle class="st13" cx="51.4" cy="14.6" r="1"/>
							</g>
						</g>
					</g>
				</g>
			</g>
		</g>
	</g>
	<g>
		<g>
			<line class="st15" x1="21.5" y1="40.2" x2="21.5" y2="48.4"/>
			<circle class="st16" cx="21.5" cy="49.4" r="1"/>
			<g>
				<g>
					<polyline class="st15" points="19.3,36.2 19.3,44.4 17.2,46.5 					"/>
					<circle class="st15" cx="16.7" cy="47" r="1"/>
				</g>
				<g>
					<polyline class="st15" points="23.8,36.2 23.8,44.4 25.9,46.5 					"/>
					<circle class="st15" cx="26.4" cy="47" r="1"/>
				</g>
			</g>
		</g>
	</g>
</g>
</svg>
