<?xml version="1.0" encoding="utf-8"?>
<!-- Generator: Adobe Illustrator 21.0.0, SVG Export Plug-In . SVG Version: 6.00 Build 0)  -->
<svg version="1.1" id="Layer_1" xmlns="http://www.w3.org/2000/svg" xmlns:xlink="http://www.w3.org/1999/xlink" x="0px" y="0px"
	 viewBox="0 0 16 16" style="enable-background:new 0 0 16 16;" xml:space="preserve">
<style type="text/css">
	.st0{fill:none;stroke:#28387C;stroke-width:0.6307;stroke-miterlimit:10;}
	.st1{fill:none;stroke:#28387C;stroke-width:0.5045;stroke-miterlimit:10;}
</style>
<g>
	<path class="st0" d="M10.4,11.8H5.6c-0.8,0-1.5-0.7-1.5-1.5V5.6c0-0.8,0.7-1.5,1.5-1.5h4.7c0.8,0,1.5,0.7,1.5,1.5v4.7
		C11.8,11.2,11.2,11.8,10.4,11.8z"/>
	<g>
		<path class="st1" d="M5.3,13C4,13,3,12,3,10.7V5.3C3,4,4,3,5.3,3h5.5C12,3,13,4,13,5.3v3"/>
		<line class="st1" x1="8" y1="13" x2="6.7" y2="13"/>
		<path class="st1" d="M13,9.2v1.5c0,1.2-1,2.2-2.2,2.2h-0.6H9.3"/>
	</g>
</g>
</svg>
