<?xml version="1.0" encoding="utf-8"?>
<!-- Generator: Adobe Illustrator 21.0.0, SVG Export Plug-In . SVG Version: 6.00 Build 0)  -->
<svg version="1.1" id="Layer_1" xmlns="http://www.w3.org/2000/svg" xmlns:xlink="http://www.w3.org/1999/xlink" x="0px" y="0px"
	 viewBox="0 0 36 36" style="enable-background:new 0 0 36 36;" xml:space="preserve">
<style type="text/css">
	.st0{fill:#FFFFFF;stroke:#CCCFE1;stroke-width:1.9124;stroke-miterlimit:10;}
	.st1{fill:#E1E7F4;}
	.st2{fill:none;stroke:#8D8AB1;stroke-width:1.9124;stroke-miterlimit:10;}
</style>
<g>
	<circle class="st0" cx="18" cy="18" r="15.9"/>
	<g>
		<circle class="st1" cx="22" cy="10.3" r="4.1"/>
		<path class="st1" d="M29.9,22.8c-1.3-3.1-4.3-5.3-7.9-5.3c-3.6,0-6.6,2.2-7.9,5.3c0,0.1,0,0.1-0.1,0.2c2,2,4.8,3.3,7.9,3.3
			c3.1,0,5.9-1.3,8-3.3C29.9,22.9,29.9,22.8,29.9,22.8z"/>
	</g>
	<g>
		<circle class="st2" cx="18" cy="13.3" r="4.1"/>
		<path class="st2" d="M25.9,25.8c-1.3-3.1-4.3-5.3-7.9-5.3c-3.6,0-6.6,2.2-7.9,5.3c0,0.1,0,0.1-0.1,0.2c2,2,4.8,3.3,7.9,3.3
			c3.1,0,5.9-1.3,8-3.3C25.9,25.9,25.9,25.8,25.9,25.8z"/>
	</g>
</g>
</svg>
