<?xml version="1.0" encoding="utf-8"?>
<!-- Generator: Adobe Illustrator 21.0.0, SVG Export Plug-In . SVG Version: 6.00 Build 0)  -->
<svg version="1.1" id="Layer_1" xmlns="http://www.w3.org/2000/svg" xmlns:xlink="http://www.w3.org/1999/xlink" x="0px" y="0px"
	 viewBox="0 0 24 24" style="enable-background:new 0 0 24 24;" xml:space="preserve">
<style type="text/css">
	.st0{fill:#E3E8F6;stroke:#28387C;stroke-width:1.4343;stroke-miterlimit:10;}
	.st1{fill:#28387C;}
	.st2{fill:#F9E0B4;}
</style>
<g>
	<circle class="st0" cx="12" cy="12" r="11.1"/>
	<g>
		<path class="st1" d="M12,13.9c-1.2,0-2.6,0.2-3.3-0.7c-2.1,0.9-3.7,2.5-4.6,4.6c-0.3,0.8-0.1,1.7,0.5,2.2l0,0
			c4.2,3.6,10.4,3.6,14.6,0l0,0c0.6-0.5,0.9-1.4,0.5-2.2c-0.8-2.1-2.5-3.8-4.6-4.6C14.8,13.9,13.2,13.9,12,13.9z"/>
		<path class="st2" d="M14.1,12.9v-1.1c0.5-1,0.8-2.9,0.8-3.7c0-1.8-1.1-3-2.9-3s-2.9,1.1-2.9,3c0,0.9,0.3,2.9,0.8,3.8v1
			c-0.4,0.1-0.8,0.2-1.2,0.4v1.8c0,1,0.8,1.9,1.9,1.9h2.8c1,0,1.9-0.8,1.9-1.9v-1.8C14.9,13.1,14.5,13,14.1,12.9z"/>
		<g>
			<path class="st1" d="M15.1,5c-0.6-0.6-2.5-0.8-3.3-0.7c-0.4,0.1-1.9,1.1-1.9,1.1S9,5.8,8.7,6C8.3,6.4,8.3,6.9,8.5,7.4
				c0.1,0.4,0.4,1.8,0.7,1.8c0.1,0,0-1,0.2-1.1c0.2-0.1,1-0.7,1.1-1.1c0-0.2-0.3-0.8-0.3-0.8c0-0.1,0-0.1,0.1-0.2
				c0.1,0,0.1,0,0.2,0.1l0.5,0.8c0.5,0.5,1.9,1.2,3.7,1.4c0.4,0.1,1.7-1.1,1.7-1.1S15.6,5.6,15.1,5z"/>
		</g>
	</g>
	<g>
		<path class="st2" d="M9.7,8.8H9.1C8.8,8.8,8.6,9,8.6,9.3v0.6c0,0.3,0.2,0.5,0.5,0.5h0.6c0.3,0,0.5-0.2,0.5-0.5V9.3
			C10.2,9,9.9,8.8,9.7,8.8z"/>
		<path class="st2" d="M14.9,8.8h-0.6c-0.3,0-0.5,0.2-0.5,0.5v0.6c0,0.3,0.2,0.5,0.5,0.5h0.6c0.3,0,0.5-0.2,0.5-0.5V9.3
			C15.4,9,15.2,8.8,14.9,8.8z"/>
	</g>
	<g>
		<path class="st1" d="M14.6,8.2c0,0-0.1,1.1-0.1,1.3c0,0.3,0.3,0.1,0.3-0.2c0.1-0.3,0.3-1.5,0.3-1.5L14.6,8.2z"/>
		<path class="st1" d="M8.8,7.8c0,0,0.2,1.2,0.3,1.5c0.1,0.3,0.3,0.4,0.3,0.2c0-0.3-0.1-1.3-0.1-1.3L8.8,7.8z"/>
	</g>
</g>
</svg>
