<?xml version="1.0" encoding="utf-8"?>
<!-- Generator: Adobe Illustrator 21.0.0, SVG Export Plug-In . SVG Version: 6.00 Build 0)  -->
<svg version="1.1" id="Layer_1" xmlns="http://www.w3.org/2000/svg" xmlns:xlink="http://www.w3.org/1999/xlink" x="0px" y="0px"
	 viewBox="0 0 36 36" style="enable-background:new 0 0 36 36;" xml:space="preserve">
<style type="text/css">
	.st0{fill:#FFFFFF;stroke:#28387C;stroke-width:1.9124;stroke-miterlimit:10;}
	.st1{fill:#28387C;}
	.st2{fill:#F9E0B4;}
	.st3{fill:#05A54E;}
	.st4{fill:none;stroke:#FFFFFF;stroke-width:1.9124;stroke-miterlimit:10;}
</style>
<g>
	<g>
		<circle class="st0" cx="17.5" cy="17.9" r="15.9"/>
		<g>
			<path class="st1" d="M17.5,20.7c-1.7,0-3.8,0.3-4.7-1c-3,1.3-5.3,3.7-6.6,6.7c-0.4,1.1-0.1,2.4,0.8,3.1l0,0
				c6.1,5.1,14.9,5.1,21,0l0,0c0.9-0.8,1.2-2,0.8-3.1c-1.2-3-3.6-5.4-6.6-6.7C21.6,20.6,19.2,20.7,17.5,20.7z"/>
			<path class="st2" d="M20.5,19.2v-1.6c0.7-1.4,1.2-4.1,1.2-5.3c0-2.5-1.6-4.2-4.2-4.2s-4.2,1.5-4.2,4.2c0,1.2,0.5,4.1,1.2,5.4v1.5
				c-0.6,0.2-1.2,0.3-1.7,0.5v2.6c0,1.5,1.2,2.7,2.7,2.7h4c1.5,0,2.7-1.2,2.7-2.7v-2.6C21.7,19.5,21.1,19.4,20.5,19.2z"/>
			<g>
				<path class="st1" d="M21.9,7.8c-0.8-0.9-3.5-1.2-4.7-1c-0.6,0.1-2.7,1.6-2.7,1.6s-1.3,0.6-1.7,1c-0.6,0.5-0.6,1.2-0.4,2
					c0.2,0.6,0.6,2.5,1.1,2.5c0.1,0,0.1-1.5,0.3-1.6c0.4-0.2,1.5-1,1.5-1.6c0-0.3-0.4-1.1-0.4-1.1c-0.1-0.1,0-0.2,0.1-0.3
					c0.1-0.1,0.2,0,0.3,0.1l0.7,1.2c0.7,0.7,2.8,1.7,5.4,2.1c0.6,0.1,2.5-1.6,2.5-1.6S22.7,8.7,21.9,7.8z"/>
			</g>
		</g>
		<g>
			<path class="st2" d="M14.1,13.3h-0.8c-0.4,0-0.8,0.3-0.8,0.8v0.8c0,0.4,0.3,0.8,0.8,0.8h0.8c0.4,0,0.8-0.3,0.8-0.8V14
				C14.9,13.6,14.5,13.3,14.1,13.3z"/>
			<path class="st2" d="M21.7,13.3h-0.8c-0.4,0-0.8,0.3-0.8,0.8v0.8c0,0.4,0.3,0.8,0.8,0.8h0.8c0.4,0,0.8-0.3,0.8-0.8V14
				C22.5,13.6,22.1,13.3,21.7,13.3z"/>
		</g>
		<g>
			<path class="st1" d="M21.3,12.5c0,0-0.1,1.6-0.1,1.9c0,0.4,0.4,0.2,0.5-0.3c0.1-0.5,0.4-2.2,0.4-2.2L21.3,12.5z"/>
			<path class="st1" d="M13,11.9c0,0,0.3,1.8,0.4,2.2c0.1,0.5,0.5,0.6,0.5,0.3c0-0.4-0.1-1.9-0.1-1.9L13,11.9z"/>
		</g>
	</g>
	<g>
		<path class="st3" d="M34.3,30.1l-1-1.1c-0.1-0.1-0.2-0.4-0.1-0.5l0.6-1.3c0.1-0.3,0-0.6-0.3-0.7l-1.4-0.3c-0.2,0-0.3-0.2-0.4-0.4
			l-0.2-1.5c0-0.3-0.3-0.5-0.6-0.4l-1.4,0.5c-0.2,0.1-0.4,0-0.5-0.1l-0.9-1.1c-0.2-0.2-0.6-0.2-0.7,0l-0.9,1.2
			c-0.1,0.2-0.3,0.2-0.5,0.2l-1.4-0.5c-0.3-0.1-0.6,0.1-0.6,0.4l-0.1,1.5c0,0.2-0.2,0.4-0.4,0.4L22,26.6c-0.3,0.1-0.4,0.4-0.3,0.7
			l0.7,1.3c0.1,0.2,0.1,0.4-0.1,0.5l-1,1.1c-0.2,0.2-0.2,0.6,0.1,0.7l1.3,0.7c0.2,0.1,0.3,0.3,0.2,0.5l-0.2,1.4
			c-0.1,0.3,0.2,0.6,0.5,0.6l1.5-0.1c0.2,0,0.4,0.1,0.5,0.3l0.6,1.4c0.1,0.3,0.5,0.4,0.7,0.2l1.2-0.8c0.2-0.1,0.4-0.1,0.5,0l1.2,0.8
			c0.3,0.2,0.6,0.1,0.7-0.2l0.5-1.4c0.1-0.2,0.3-0.3,0.5-0.3l1.5,0c0.3,0,0.5-0.3,0.5-0.6L32.7,32c0-0.2,0.1-0.4,0.2-0.5l1.3-0.8
			C34.5,30.6,34.5,30.3,34.3,30.1z"/>
		<polyline class="st4" points="25.2,28.7 27.6,31.1 31.1,27.5 		"/>
	</g>
</g>
</svg>
